<svg xmlns="http://www.w3.org/2000/svg" xmlns:xlink="http://www.w3.org/1999/xlink" width="794" zoomAndPan="magnify" viewBox="0 0 595.5 842.249979" height="1123" preserveAspectRatio="xMidYMid meet" version="1.0"><defs><clipPath id="6738574cf1"><path d="M 0.015625 0 L 594.984375 0 L 594.984375 841.5 L 0.015625 841.5 Z M 0.015625 0 " clip-rule="nonzero"/></clipPath><clipPath id="61c389d3b6"><path d="M 205 535 L 285 535 L 285 594.011719 L 205 594.011719 Z M 205 535 " clip-rule="nonzero"/></clipPath><clipPath id="91e0d8cdfd"><path d="M 170 573 L 458 573 L 458 594.011719 L 170 594.011719 Z M 170 573 " clip-rule="nonzero"/></clipPath><clipPath id="53608c6c39"><path d="M 141 568 L 189 568 L 189 594.011719 L 141 594.011719 Z M 141 568 " clip-rule="nonzero"/></clipPath><clipPath id="e8eb686c9c"><path d="M 93 568 L 129 568 L 129 594.011719 L 93 594.011719 Z M 93 568 " clip-rule="nonzero"/></clipPath><clipPath id="dedfdc5de8"><path d="M 117 247.820312 L 152 247.820312 L 152 268 L 117 268 Z M 117 247.820312 " clip-rule="nonzero"/></clipPath><clipPath id="9720b93fdc"><path d="M 59.488281 344 L 172 344 L 172 467 L 59.488281 467 Z M 59.488281 344 " clip-rule="nonzero"/></clipPath><clipPath id="365423e6e5"><path d="M 333 535 L 413 535 L 413 594.011719 L 333 594.011719 Z M 333 535 " clip-rule="nonzero"/></clipPath><clipPath id="3d06053914"><path d="M 513.066406 284.613281 L 535.054688 284.613281 L 535.054688 312 L 513.066406 312 Z M 513.066406 284.613281 " clip-rule="nonzero"/></clipPath><clipPath id="5a1378b4a0"><path d="M 375 568 L 428 568 L 428 594.011719 L 375 594.011719 Z M 375 568 " clip-rule="nonzero"/></clipPath><clipPath id="0718756e20"><path d="M 460 568 L 492 568 L 492 594.011719 L 460 594.011719 Z M 460 568 " clip-rule="nonzero"/></clipPath><clipPath id="32a46957f8"><path d="M 81 309.703125 L 112 309.703125 L 112 357.660156 L 81 357.660156 Z M 81 309.703125 " clip-rule="nonzero"/></clipPath><clipPath id="a47bb66e0e"><path d="M 71.769531 336 L 82 336 L 82 352 L 71.769531 352 Z M 71.769531 336 " clip-rule="nonzero"/></clipPath><clipPath id="78b58399a8"><path d="M 111 314 L 121.972656 314 L 121.972656 331 L 111 331 Z M 111 314 " clip-rule="nonzero"/></clipPath><clipPath id="7599d0ed89"><path d="M 465 337.738281 L 496 337.738281 L 496 385.695312 L 465 385.695312 Z M 465 337.738281 " clip-rule="nonzero"/></clipPath><clipPath id="e8c11eff2f"><path d="M 495 364 L 505.53125 364 L 505.53125 380 L 495 380 Z M 495 364 " clip-rule="nonzero"/></clipPath><clipPath id="edd8b79311"><path d="M 455.5625 342 L 466 342 L 466 360 L 455.5625 360 Z M 455.5625 342 " clip-rule="nonzero"/></clipPath><clipPath id="e669149937"><path d="M 386 569.910156 L 417 569.910156 L 417 617.867188 L 386 617.867188 Z M 386 569.910156 " clip-rule="nonzero"/></clipPath><clipPath id="78692ce562"><path d="M 416 596 L 425.804688 596 L 425.804688 612 L 416 612 Z M 416 596 " clip-rule="nonzero"/></clipPath><clipPath id="7971791a2d"><path d="M 375.835938 574 L 387 574 L 387 592 L 375.835938 592 Z M 375.835938 574 " clip-rule="nonzero"/></clipPath><clipPath id="8f0e643cc0"><path d="M 158 511.226562 L 189 511.226562 L 189 559.183594 L 158 559.183594 Z M 158 511.226562 " clip-rule="nonzero"/></clipPath><clipPath id="9927bac0a9"><path d="M 148.742188 537 L 159 537 L 159 554 L 148.742188 554 Z M 148.742188 537 " clip-rule="nonzero"/></clipPath><clipPath id="5e9752461d"><path d="M 188 515 L 198.949219 515 L 198.949219 533 L 188 533 Z M 188 515 " clip-rule="nonzero"/></clipPath></defs><g clip-path="url(#6738574cf1)"><path fill="#ffffff" d="M 0.015625 0 L 594.984375 0 L 594.984375 841.5 L 0.015625 841.5 Z M 0.015625 0 " fill-opacity="1" fill-rule="nonzero"/><path fill="#ffffff" d="M 0.015625 0 L 594.984375 0 L 594.984375 841.5 L 0.015625 841.5 Z M 0.015625 0 " fill-opacity="1" fill-rule="nonzero"/></g><path fill="#fcb184" d="M 240.457031 285.605469 C 240.785156 284.941406 240.855469 284.246094 240.667969 283.527344 C 240.515625 282.960938 240.164062 282.5625 239.617188 282.34375 L 239.535156 282.34375 C 239.621094 282.105469 239.679688 281.867188 239.714844 281.621094 C 239.761719 281.347656 239.773438 281.078125 239.753906 280.804688 C 239.722656 280.542969 239.59375 280.332031 239.378906 280.171875 C 239.222656 280.054688 239.046875 279.988281 238.851562 279.972656 C 238.65625 279.949219 238.460938 279.949219 238.269531 279.972656 L 242.707031 276.800781 C 243.335938 276.386719 243.710938 275.8125 243.835938 275.070312 C 243.871094 274.777344 243.800781 274.507812 243.628906 274.265625 C 243.410156 273.992188 243.128906 273.863281 242.78125 273.878906 C 242.4375 273.914062 242.105469 273.996094 241.789062 274.125 C 239.164062 274.980469 234.742188 277.464844 232.714844 278.492188 C 232.6875 278.214844 232.574219 277.988281 232.371094 277.804688 C 231.992188 277.503906 231.566406 277.417969 231.101562 277.550781 C 230.710938 277.6875 230.371094 277.898438 230.082031 278.1875 L 228.476562 279.621094 C 226.960938 281.003906 224.613281 283.234375 224.453125 283.425781 C 224.308594 283.625 224.230469 283.847656 224.214844 284.09375 C 224.339844 286.890625 226.269531 289.585938 227.929688 292.75 C 228.140625 293.195312 228.390625 293.621094 228.671875 294.019531 C 228.886719 294.269531 229.152344 294.449219 229.464844 294.554688 C 229.707031 294.628906 229.957031 294.671875 230.207031 294.691406 C 231.082031 294.800781 231.953125 294.773438 232.820312 294.605469 C 234.285156 294.316406 235.601562 293.707031 236.765625 292.769531 C 238.351562 291.457031 238.898438 290.15625 238.921875 289.667969 C 239.914062 289.042969 240.546875 288.160156 240.824219 287.023438 C 240.921875 286.578125 240.867188 286.15625 240.652344 285.757812 C 240.601562 285.691406 240.535156 285.644531 240.457031 285.605469 Z M 240.457031 285.605469 " fill-opacity="1" fill-rule="nonzero"/><path fill="#4a3b42" d="M 207.683594 517.296875 L 282.742188 517.296875 C 283.144531 517.296875 283.542969 517.335938 283.941406 517.414062 C 284.335938 517.492188 284.722656 517.613281 285.097656 517.765625 C 285.46875 517.917969 285.828125 518.109375 286.160156 518.335938 C 286.496094 518.558594 286.808594 518.8125 287.09375 519.101562 C 287.378906 519.386719 287.636719 519.695312 287.863281 520.035156 C 288.085938 520.371094 288.273438 520.722656 288.429688 521.097656 C 288.585938 521.472656 288.699219 521.855469 288.78125 522.253906 C 288.859375 522.648438 288.898438 523.054688 288.898438 523.457031 L 288.898438 533.117188 C 288.902344 533.390625 288.851562 533.660156 288.75 533.914062 C 288.648438 534.167969 288.496094 534.394531 288.300781 534.589844 C 288.105469 534.785156 287.882812 534.933594 287.628906 535.035156 C 287.371094 535.140625 287.105469 535.1875 286.832031 535.183594 L 203.566406 535.183594 C 203.296875 535.183594 203.039062 535.132812 202.785156 535.03125 C 202.539062 534.925781 202.316406 534.777344 202.125 534.585938 C 201.9375 534.398438 201.789062 534.175781 201.6875 533.929688 C 201.582031 533.679688 201.53125 533.417969 201.53125 533.148438 L 201.53125 523.457031 C 201.53125 523.050781 201.570312 522.648438 201.648438 522.253906 C 201.730469 521.855469 201.84375 521.472656 202 521.097656 C 202.15625 520.722656 202.34375 520.371094 202.570312 520.035156 C 202.792969 519.695312 203.046875 519.386719 203.335938 519.101562 C 203.617188 518.8125 203.933594 518.558594 204.265625 518.335938 C 204.601562 518.109375 204.960938 517.917969 205.332031 517.761719 C 205.707031 517.613281 206.089844 517.492188 206.488281 517.414062 C 206.886719 517.335938 207.285156 517.296875 207.6875 517.296875 Z M 207.683594 517.296875 " fill-opacity="1" fill-rule="nonzero"/><g clip-path="url(#61c389d3b6)"><path fill="#ffe0d7" d="M 205.433594 535.152344 L 284.996094 535.152344 L 284.996094 594.046875 L 205.433594 594.046875 Z M 205.433594 535.152344 " fill-opacity="1" fill-rule="nonzero"/></g><path fill="#ff7953" d="M 205.433594 535.152344 L 284.996094 535.152344 L 284.996094 537.496094 L 205.433594 540.046875 Z M 205.433594 535.152344 " fill-opacity="1" fill-rule="nonzero"/><path fill="#ff7953" d="M 340.492188 359.667969 C 340.492188 359.667969 355.316406 355.164062 375.855469 359.667969 L 372.003906 390.480469 C 372.003906 390.480469 360.527344 406.105469 360.050781 405.628906 C 359.574219 405.15625 350.640625 398.453125 350.640625 398.453125 Z M 340.492188 359.667969 " fill-opacity="1" fill-rule="nonzero"/><path fill="#4a3b42" d="M 392.277344 374.574219 L 324.058594 374.058594 C 323.660156 374.054688 323.308594 373.929688 322.992188 373.683594 C 322.679688 373.441406 322.472656 373.125 322.371094 372.738281 C 322.273438 372.355469 322.300781 371.980469 322.457031 371.617188 C 322.613281 371.25 322.863281 370.96875 323.207031 370.769531 L 358.019531 351.21875 L 362.902344 348.566406 C 362.988281 348.519531 365.410156 346.988281 364.621094 343.292969 C 364.566406 342.976562 364.484375 342.671875 364.375 342.375 C 364.265625 342.078125 364.128906 341.792969 363.96875 341.515625 C 363.808594 341.242188 363.625 340.984375 363.417969 340.746094 C 363.210938 340.507812 362.988281 340.285156 362.738281 340.082031 C 362.496094 339.882812 362.230469 339.707031 361.953125 339.550781 C 361.675781 339.398438 361.386719 339.269531 361.085938 339.167969 C 360.785156 339.066406 360.480469 338.992188 360.164062 338.945312 C 359.851562 338.898438 359.535156 338.878906 359.21875 338.890625 C 355.285156 338.890625 353.578125 341.792969 353.40625 343.785156 L 352.136719 343.675781 C 352.355469 341.214844 354.417969 337.589844 359.238281 337.609375 C 360.15625 337.609375 364.789062 337.917969 365.871094 343.023438 C 366.855469 347.640625 363.675781 349.59375 363.542969 349.675781 L 359.636719 351.800781 L 393.164062 371.320312 C 393.507812 371.523438 393.761719 371.804688 393.914062 372.175781 C 394.0625 372.542969 394.085938 372.917969 393.984375 373.300781 C 393.882812 373.6875 393.671875 374 393.355469 374.242188 C 393.039062 374.484375 392.683594 374.601562 392.285156 374.601562 Z M 358.320312 352.488281 L 323.835938 371.894531 C 323.742188 371.949219 323.671875 372.027344 323.628906 372.125 C 323.585938 372.226562 323.582031 372.328125 323.605469 372.433594 C 323.636719 372.542969 323.691406 372.628906 323.777344 372.691406 C 323.863281 372.757812 323.960938 372.796875 324.070312 372.796875 L 392.269531 373.308594 C 392.378906 373.3125 392.476562 373.277344 392.5625 373.210938 C 392.648438 373.144531 392.707031 373.058594 392.734375 372.953125 C 392.765625 372.847656 392.761719 372.742188 392.71875 372.640625 C 392.679688 372.539062 392.609375 372.460938 392.511719 372.410156 Z M 358.320312 352.488281 " fill-opacity="1" fill-rule="nonzero"/><path fill="#4a3b42" d="M 358.175781 472.660156 L 361.589844 477.027344 C 375.0625 477.820312 400.433594 473.0625 400.433594 473.0625 L 395.296875 439.757812 L 425.027344 424.691406 C 425.027344 424.691406 408.363281 385.835938 401.640625 376.71875 C 394.917969 367.605469 375.867188 359.667969 375.867188 359.667969 L 361.589844 384.648438 L 358.175781 395.75 L 354.765625 384.648438 L 340.492188 359.667969 C 340.492188 359.667969 321.464844 367.597656 314.71875 376.71875 C 307.976562 385.84375 291.335938 424.691406 291.335938 424.691406 L 321.082031 439.757812 L 315.933594 473.0625 C 315.933594 473.0625 341.304688 477.820312 354.785156 477.027344 L 358.195312 472.660156 " fill-opacity="1" fill-rule="nonzero"/><path fill="#4a3b42" d="M 330.335938 374.574219 L 262.09375 374.058594 C 261.695312 374.054688 261.339844 373.929688 261.027344 373.683594 C 260.714844 373.441406 260.507812 373.125 260.410156 372.738281 C 260.308594 372.355469 260.335938 371.980469 260.492188 371.617188 C 260.644531 371.25 260.898438 370.96875 261.246094 370.769531 L 296.078125 351.21875 L 300.964844 348.566406 C 301.039062 348.519531 303.460938 346.988281 302.683594 343.292969 C 302.625 342.976562 302.546875 342.671875 302.433594 342.375 C 302.324219 342.078125 302.191406 341.792969 302.03125 341.515625 C 301.871094 341.242188 301.683594 340.984375 301.480469 340.746094 C 301.269531 340.507812 301.046875 340.285156 300.800781 340.082031 C 300.554688 339.882812 300.289062 339.707031 300.011719 339.550781 C 299.734375 339.398438 299.449219 339.269531 299.148438 339.167969 C 298.847656 339.066406 298.539062 338.992188 298.226562 338.945312 C 297.910156 338.898438 297.59375 338.878906 297.277344 338.890625 L 297.207031 338.890625 C 296.859375 338.871094 296.515625 338.886719 296.171875 338.933594 C 295.824219 338.980469 295.488281 339.0625 295.15625 339.175781 C 294.828125 339.285156 294.511719 339.425781 294.207031 339.597656 C 293.90625 339.769531 293.625 339.96875 293.359375 340.195312 C 293.09375 340.421875 292.855469 340.671875 292.636719 340.941406 C 292.417969 341.214844 292.226562 341.503906 292.0625 341.8125 C 291.902344 342.121094 291.769531 342.441406 291.667969 342.773438 C 291.570312 343.105469 291.5 343.445312 291.464844 343.792969 L 290.195312 343.683594 C 290.234375 343.257812 290.316406 342.84375 290.4375 342.433594 C 290.5625 342.023438 290.71875 341.628906 290.914062 341.25 C 291.113281 340.871094 291.34375 340.511719 291.609375 340.175781 C 291.871094 339.84375 292.167969 339.53125 292.488281 339.253906 C 292.8125 338.972656 293.15625 338.726562 293.527344 338.511719 C 293.898438 338.300781 294.285156 338.121094 294.6875 337.980469 C 295.089844 337.839844 295.503906 337.742188 295.925781 337.675781 C 296.347656 337.613281 296.773438 337.59375 297.203125 337.613281 L 297.289062 337.613281 C 298.207031 337.613281 302.839844 337.925781 303.925781 343.03125 C 304.910156 347.648438 301.730469 349.601562 301.597656 349.683594 L 297.691406 351.804688 L 331.230469 371.292969 C 331.574219 371.492188 331.828125 371.773438 331.980469 372.140625 C 332.128906 372.511719 332.152344 372.882812 332.050781 373.269531 C 331.949219 373.65625 331.738281 373.96875 331.421875 374.210938 C 331.105469 374.449219 330.75 374.574219 330.351562 374.574219 Z M 296.386719 352.488281 L 261.894531 371.894531 C 261.800781 371.945312 261.730469 372.023438 261.6875 372.125 C 261.640625 372.222656 261.632812 372.328125 261.660156 372.433594 C 261.6875 372.542969 261.742188 372.628906 261.832031 372.699219 C 261.917969 372.769531 262.019531 372.796875 262.132812 372.796875 L 330.332031 373.308594 C 330.4375 373.3125 330.539062 373.277344 330.628906 373.207031 C 330.714844 373.140625 330.769531 373.054688 330.800781 372.949219 C 330.824219 372.84375 330.820312 372.742188 330.78125 372.640625 C 330.738281 372.542969 330.667969 372.460938 330.570312 372.410156 Z M 296.386719 352.488281 " fill-opacity="1" fill-rule="nonzero"/><path fill="#ff7953" d="M 296.460938 402.007812 C 305.976562 389.714844 320.804688 383.8125 320.804688 383.8125 C 320.804688 383.8125 325.320312 401.507812 327.394531 405.648438 C 327.394531 405.648438 328.144531 412.628906 326.265625 427.109375 C 324.386719 441.589844 335.488281 464 329.839844 520.847656 C 329.839844 520.847656 314.765625 527.46875 296.882812 527.386719 L 295.894531 527.386719 C 277.875 527.535156 262.625 520.847656 262.625 520.847656 C 256.980469 464 268.085938 441.597656 266.203125 427.109375 C 264.320312 412.621094 265.074219 405.648438 265.074219 405.648438 C 267.140625 401.507812 271.65625 383.8125 271.65625 383.8125 C 271.65625 383.8125 286.472656 389.714844 296.003906 402.007812 " fill-opacity="1" fill-rule="nonzero"/><path fill="#ff7953" d="M 271.289062 385.703125 C 271.289062 385.703125 270.585938 371.222656 269.789062 365.984375 C 270.003906 365.59375 270.308594 365.292969 270.695312 365.070312 C 271.082031 364.851562 271.5 364.75 271.945312 364.761719 C 271.945312 364.761719 272.933594 378.085938 273.046875 384.5625 Z M 271.289062 385.703125 " fill-opacity="1" fill-rule="nonzero"/><path fill="#ff7953" d="M 320.792969 385.703125 C 320.792969 385.703125 321.503906 371.222656 322.296875 365.984375 C 322.078125 365.59375 321.777344 365.292969 321.390625 365.070312 C 321.003906 364.851562 320.585938 364.75 320.144531 364.761719 C 320.144531 364.761719 319.152344 378.085938 319.035156 384.5625 Z M 320.792969 385.703125 " fill-opacity="1" fill-rule="nonzero"/><path fill="#ffe0d7" d="M 234.066406 354.316406 C 234.066406 354.316406 242.53125 350.738281 254.773438 354.316406 L 269.617188 473.285156 C 269.617188 473.285156 239.664062 476.183594 215.699219 473.285156 Z M 234.066406 354.316406 " fill-opacity="1" fill-rule="nonzero"/><path fill="#4a3b42" d="M 278.757812 374.574219 L 210.542969 374.058594 C 210.148438 374.054688 209.789062 373.929688 209.480469 373.683594 C 209.164062 373.441406 208.957031 373.125 208.859375 372.738281 C 208.757812 372.355469 208.785156 371.980469 208.941406 371.617188 C 209.097656 371.25 209.347656 370.96875 209.695312 370.769531 L 244.5 351.21875 L 249.386719 348.566406 C 249.464844 348.519531 251.886719 346.988281 251.101562 343.292969 C 251.046875 342.976562 250.964844 342.671875 250.855469 342.375 C 250.746094 342.078125 250.609375 341.792969 250.453125 341.515625 C 250.289062 341.246094 250.109375 340.988281 249.898438 340.746094 C 249.695312 340.507812 249.46875 340.285156 249.222656 340.082031 C 248.976562 339.882812 248.714844 339.707031 248.4375 339.554688 C 248.160156 339.398438 247.871094 339.269531 247.570312 339.167969 C 247.269531 339.070312 246.960938 338.992188 246.648438 338.945312 C 246.335938 338.898438 246.019531 338.878906 245.703125 338.890625 L 245.632812 338.890625 C 245.285156 338.871094 244.941406 338.886719 244.59375 338.933594 C 244.25 338.984375 243.914062 339.0625 243.582031 339.175781 C 243.253906 339.285156 242.9375 339.429688 242.636719 339.601562 C 242.335938 339.773438 242.050781 339.96875 241.785156 340.199219 C 241.523438 340.421875 241.28125 340.671875 241.0625 340.945312 C 240.84375 341.214844 240.652344 341.503906 240.492188 341.8125 C 240.328125 342.121094 240.195312 342.441406 240.09375 342.773438 C 239.992188 343.105469 239.921875 343.445312 239.886719 343.792969 L 238.617188 343.683594 C 238.664062 343.257812 238.75 342.839844 238.875 342.425781 C 239 342.015625 239.164062 341.621094 239.363281 341.238281 C 239.566406 340.859375 239.796875 340.5 240.066406 340.164062 C 240.335938 339.828125 240.632812 339.519531 240.960938 339.242188 C 241.289062 338.964844 241.632812 338.714844 242.007812 338.503906 C 242.378906 338.289062 242.769531 338.113281 243.179688 337.972656 C 243.585938 337.832031 244.003906 337.734375 244.425781 337.675781 C 244.851562 337.613281 245.28125 337.59375 245.710938 337.613281 C 246.628906 337.613281 251.265625 337.925781 252.351562 343.03125 C 253.332031 347.648438 250.15625 349.601562 250.015625 349.683594 L 246.117188 351.804688 L 279.644531 371.328125 C 279.988281 371.53125 280.242188 371.8125 280.390625 372.179688 C 280.542969 372.550781 280.566406 372.925781 280.460938 373.3125 C 280.359375 373.699219 280.148438 374.011719 279.832031 374.253906 C 279.511719 374.492188 279.15625 374.613281 278.757812 374.609375 Z M 244.808594 352.488281 L 210.320312 371.894531 C 210.109375 372.015625 210.035156 372.195312 210.09375 372.433594 C 210.152344 372.671875 210.304688 372.789062 210.550781 372.796875 L 278.757812 373.308594 C 278.867188 373.3125 278.960938 373.277344 279.050781 373.210938 C 279.136719 373.144531 279.191406 373.058594 279.21875 372.953125 C 279.25 372.847656 279.246094 372.746094 279.203125 372.644531 C 279.160156 372.542969 279.09375 372.460938 279 372.410156 Z M 244.808594 352.488281 " fill-opacity="1" fill-rule="nonzero"/><path fill="#a4d3f4" d="M 225.46875 358.421875 C 225.46875 358.421875 205.355469 369.355469 202.8125 380.683594 C 200.269531 392.019531 185.621094 469.210938 185.621094 469.210938 L 195.585938 471.113281 L 194.414062 480.300781 L 225.496094 475.417969 C 225.496094 475.417969 236.4375 383.015625 236.632812 363.480469 L 234.09375 354.296875 Z M 225.46875 358.421875 " fill-opacity="1" fill-rule="nonzero"/><path fill="#a4d3f4" d="M 263.363281 358.421875 C 263.363281 358.421875 283.476562 369.355469 286.019531 380.683594 C 288.5625 392.019531 303.214844 469.210938 303.214844 469.210938 L 293.25 471.113281 L 294.441406 480.320312 L 263.363281 475.4375 C 263.363281 475.4375 252.421875 383.035156 252.222656 363.5 L 254.757812 354.316406 Z M 263.363281 358.421875 " fill-opacity="1" fill-rule="nonzero"/><path fill="#fcb184" d="M 176.671875 327.316406 L 451.3125 327.316406 L 451.3125 334.96875 L 176.671875 334.96875 Z M 176.671875 327.316406 " fill-opacity="1" fill-rule="nonzero"/><g clip-path="url(#91e0d8cdfd)"><path fill="#fcb184" d="M 457.914062 594.054688 L 452.839844 594.054688 C 452.839844 588.816406 451.476562 584.816406 448.785156 582.183594 C 447.605469 581.089844 446.273438 580.238281 444.78125 579.625 C 443.292969 579.015625 441.742188 578.683594 440.132812 578.632812 L 187.921875 578.632812 C 187.824219 578.632812 182.804688 578.632812 179.179688 582.222656 C 176.511719 584.863281 175.167969 588.839844 175.167969 594.054688 L 170.0625 594.054688 C 170.0625 587.394531 171.964844 582.171875 175.644531 578.535156 C 177.320312 576.96875 179.214844 575.75 181.34375 574.886719 C 183.464844 574.023438 185.675781 573.566406 187.96875 573.523438 L 440.058594 573.523438 C 440.296875 573.523438 447.144531 573.449219 452.339844 578.535156 C 456.039062 582.171875 457.914062 587.394531 457.914062 594.054688 Z M 457.914062 594.054688 " fill-opacity="1" fill-rule="nonzero"/></g><path fill="#fcb184" d="M 185.386719 331.140625 L 190.488281 331.140625 L 190.488281 576.082031 L 185.386719 576.082031 Z M 185.386719 331.140625 " fill-opacity="1" fill-rule="nonzero"/><path fill="#fcb184" d="M 437.496094 331.140625 L 442.59375 331.140625 L 442.59375 576.082031 L 437.496094 576.082031 Z M 437.496094 331.140625 " fill-opacity="1" fill-rule="nonzero"/><path fill="#4a3b42" d="M 118.246094 259.664062 C 118.550781 263.832031 116.179688 267.675781 113.867188 271.160156 C 111.550781 274.640625 109.109375 278.414062 109.242188 282.578125 C 109.292969 283.488281 109.457031 284.382812 109.722656 285.257812 C 109.992188 286.128906 110.359375 286.957031 110.828125 287.746094 C 111.296875 288.53125 111.855469 289.25 112.496094 289.898438 C 113.140625 290.546875 113.851562 291.113281 114.632812 291.589844 C 116.210938 292.53125 117.90625 293.15625 119.714844 293.464844 C 121.53125 293.769531 123.332031 293.742188 125.132812 293.375 C 125.429688 293.339844 125.695312 293.234375 125.925781 293.050781 C 126.101562 292.871094 126.222656 292.65625 126.289062 292.417969 C 127.222656 289.683594 127.847656 286.882812 128.160156 284.015625 C 128.472656 281.144531 128.46875 278.277344 128.144531 275.40625 C 127.820312 272.535156 127.1875 269.742188 126.242188 267.011719 C 125.296875 264.285156 124.066406 261.691406 122.546875 259.238281 " fill-opacity="1" fill-rule="nonzero"/><path fill="#4a3b42" d="M 145.492188 258.371094 C 146.515625 262.15625 147.761719 265.871094 149.222656 269.515625 C 151.015625 273.738281 153.457031 278.042969 152.925781 282.605469 C 152.476562 286.414062 149.863281 289.820312 146.511719 291.734375 C 143.164062 293.652344 139.164062 294.210938 135.324219 293.898438 C 135.125 293.898438 134.9375 293.851562 134.765625 293.761719 C 134.507812 293.554688 134.351562 293.289062 134.300781 292.960938 C 133.527344 289.941406 133.140625 286.875 133.152344 283.761719 C 133.160156 280.644531 133.558594 277.578125 134.351562 274.566406 C 135.960938 268.507812 138.601562 262.933594 142.265625 257.851562 " fill-opacity="1" fill-rule="nonzero"/><g clip-path="url(#53608c6c39)"><path fill="#ffe0d7" d="M 159.652344 568 C 159.652344 568 165.824219 579.699219 174.441406 582.589844 C 183.054688 585.484375 186.757812 585.410156 188.671875 594.078125 L 157.316406 594.078125 L 153.179688 589.1875 L 153.179688 594.078125 L 141.328125 594.078125 L 142.210938 568 Z M 159.652344 568 " fill-opacity="1" fill-rule="nonzero"/></g><g clip-path="url(#e8eb686c9c)"><path fill="#ffe0d7" d="M 112.226562 568 C 112.226562 568 110.589844 579.699219 105.847656 582.589844 C 101.101562 585.484375 93.960938 586.042969 93.960938 594.078125 L 123.183594 594.078125 L 125.464844 589.1875 L 125.464844 594.078125 L 128.277344 594.078125 L 128.277344 568 Z M 112.226562 568 " fill-opacity="1" fill-rule="nonzero"/></g><path fill="#4a3b42" d="M 166.554688 372.347656 L 169.136719 576.074219 L 131.191406 576.074219 C 131.191406 576.074219 135.59375 514.886719 135.234375 485.808594 L 131.179688 376.746094 Z M 166.554688 372.347656 " fill-opacity="1" fill-rule="nonzero"/><path fill="#4a3b42" d="M 142.210938 374.222656 L 134.21875 576.074219 L 96.691406 576.074219 C 96.691406 576.074219 96.058594 531.53125 101.679688 485.40625 L 102.753906 372.347656 Z M 142.210938 374.222656 " fill-opacity="1" fill-rule="nonzero"/><path fill="#ffe0d7" d="M 134.21875 576.074219 C 133.925781 576.074219 135.109375 546.140625 136.558594 509.21875 C 138.011719 472.300781 139.199219 442.378906 139.488281 442.390625 C 139.78125 442.402344 138.601562 472.328125 137.148438 509.246094 C 135.695312 546.167969 134.511719 576.089844 134.21875 576.074219 Z M 134.21875 576.074219 " fill-opacity="1" fill-rule="nonzero"/><path fill="#fcb184" d="M 150.019531 254.875 C 151.417969 258.371094 152.332031 261.988281 152.761719 265.730469 C 153.191406 269.472656 153.125 273.199219 152.558594 276.925781 C 150.699219 289.445312 140.960938 290.921875 136.699219 290.488281 C 131.730469 289.984375 124.015625 285.875 122.027344 277.253906 C 120.042969 268.636719 120.230469 253.886719 120.230469 253.886719 Z M 150.019531 254.875 " fill-opacity="1" fill-rule="nonzero"/><path fill="#fcb184" d="M 121.734375 275.855469 C 121.734375 275.855469 121.898438 279.664062 121.898438 294.824219 L 139.515625 295.195312 L 137.902344 277.292969 Z M 121.734375 275.855469 " fill-opacity="1" fill-rule="nonzero"/><path fill="#ffe0d7" d="M 145.609375 295.21875 C 145.609375 295.21875 164.640625 296.941406 166.035156 312.550781 C 167.429688 328.164062 168.003906 367.742188 168.003906 367.742188 C 168.003906 367.742188 168.636719 376.335938 158.066406 377.691406 C 147.5 379.050781 110.9375 377.609375 110.9375 377.609375 C 110.9375 377.609375 100.703125 378.140625 100.15625 368.410156 C 99.609375 358.679688 100.789062 315.261719 101.425781 308.667969 C 102.386719 299.300781 110.820312 294.964844 122.761719 294.964844 Z M 145.609375 295.21875 " fill-opacity="1" fill-rule="nonzero"/><path fill="#ffe0d7" d="M 148.445312 295.699219 C 148.445312 295.699219 167.539062 295.957031 191.988281 298.683594 C 191.988281 298.683594 209.878906 287.398438 223.707031 281.746094 L 234.945312 297.476562 C 234.945312 297.476562 220.484375 312.359375 199.277344 320.191406 C 187.171875 324.671875 149.167969 325.484375 146.960938 321.820312 C 136.382812 304.195312 148.445312 295.699219 148.445312 295.699219 Z M 148.445312 295.699219 " fill-opacity="1" fill-rule="nonzero"/><path fill="#fcb184" d="M 123.339844 267.917969 C 122.605469 266.726562 121.652344 265.734375 120.492188 264.949219 C 119.292969 264.257812 117.632812 264.148438 116.609375 265.078125 C 116.257812 265.457031 115.988281 265.890625 115.808594 266.375 C 115.625 266.859375 115.546875 267.359375 115.570312 267.878906 C 115.515625 268.910156 115.691406 269.898438 116.09375 270.847656 C 116.5 271.796875 117.09375 272.609375 117.871094 273.285156 C 119.464844 274.550781 121.933594 274.738281 123.511719 273.449219 Z M 123.339844 267.917969 " fill-opacity="1" fill-rule="nonzero"/><path fill="#4a3b42" d="M 121.734375 271.78125 C 121.78125 271.828125 121.664062 272 121.363281 272.167969 C 120.902344 272.398438 120.421875 272.457031 119.921875 272.34375 C 119.191406 272.132812 118.613281 271.710938 118.191406 271.078125 C 117.632812 270.402344 117.261719 269.636719 117.085938 268.78125 C 116.980469 268.3125 116.996094 267.855469 117.140625 267.402344 C 117.285156 266.945312 117.53125 266.558594 117.886719 266.242188 C 118.085938 266.113281 118.300781 266.050781 118.539062 266.050781 C 118.773438 266.050781 118.992188 266.113281 119.191406 266.242188 C 119.496094 266.429688 119.738281 266.671875 119.921875 266.976562 C 120.121094 267.363281 120.359375 267.722656 120.644531 268.050781 C 120.84375 268.25 121 268.320312 120.980469 268.398438 C 120.960938 268.476562 120.761719 268.5 120.441406 268.328125 C 120.054688 268.054688 119.734375 267.714844 119.492188 267.304688 C 119.332031 267.085938 119.140625 266.902344 118.90625 266.761719 C 118.671875 266.605469 118.4375 266.605469 118.203125 266.761719 C 117.949219 267.019531 117.773438 267.320312 117.675781 267.664062 C 117.574219 268.011719 117.566406 268.355469 117.644531 268.710938 C 117.8125 269.46875 118.140625 270.148438 118.625 270.753906 C 118.972656 271.273438 119.4375 271.636719 120.03125 271.84375 C 121.042969 272.097656 121.664062 271.636719 121.734375 271.78125 Z M 121.734375 271.78125 " fill-opacity="1" fill-rule="nonzero"/><path fill="#4a3b42" d="M 121.914062 269.257812 C 121.96875 269.539062 121.164062 269.648438 120.777344 270.523438 C 120.617188 270.863281 120.601562 271.207031 120.71875 271.558594 C 120.804688 271.785156 120.933594 271.882812 120.898438 272.035156 C 120.859375 272.1875 120.527344 272.179688 120.265625 271.800781 C 119.996094 271.292969 119.996094 270.789062 120.265625 270.285156 C 120.460938 269.792969 120.800781 269.429688 121.277344 269.203125 C 121.628906 269.058594 121.914062 269.121094 121.914062 269.257812 Z M 121.914062 269.257812 " fill-opacity="1" fill-rule="nonzero"/><path fill="#fcb184" d="M 119.199219 295.121094 C 119.199219 295.121094 122.734375 309.15625 133.921875 309.15625 C 142.925781 309.15625 142.453125 297.273438 142.261719 295.199219 L 121.914062 294.824219 Z M 119.199219 295.121094 " fill-opacity="1" fill-rule="nonzero"/><path fill="#ffe0d7" d="M 109.175781 297.65625 C 109.175781 297.65625 97.078125 302.730469 93.414062 319.59375 C 90.027344 335.164062 87.914062 356.296875 92.378906 363.90625 C 96.84375 371.519531 107.484375 372.519531 109.175781 358.199219 C 110.867188 343.875 109.175781 297.65625 109.175781 297.65625 Z M 109.175781 297.65625 " fill-opacity="1" fill-rule="nonzero"/><g clip-path="url(#dedfdc5de8)"><path fill="#4a3b42" d="M 120.644531 265.15625 C 121.167969 265.917969 121.523438 266.75 121.710938 267.65625 C 131.789062 267.605469 134.707031 258.027344 132.746094 254.425781 C 136.667969 259.636719 141.355469 260.367188 147.519531 260.597656 C 150.957031 260.722656 148.863281 261.691406 151.148438 259.121094 C 151.4375 258.839844 151.625 258.5 151.71875 258.101562 C 151.765625 257.628906 151.667969 257.183594 151.441406 256.765625 C 149.960938 253.527344 147 251.109375 143.742188 249.734375 C 140.378906 248.445312 136.894531 247.847656 133.289062 247.945312 C 128.601562 247.945312 123.410156 248.902344 120.546875 252.621094 C 118.113281 255.792969 118.011719 260.074219 117.96875 264.039062 C 118.8125 263.941406 119.5625 264.164062 120.210938 264.714844 " fill-opacity="1" fill-rule="nonzero"/></g><path fill="#4a3b42" d="M 121.363281 274.324219 C 123.546875 278.675781 125.441406 283.324219 125.582031 288.210938 C 125.691406 289.527344 125.453125 290.785156 124.863281 291.96875 C 124.230469 293.085938 122.890625 293.875 121.644531 293.5625 C 121.347656 293.503906 121.101562 293.359375 120.90625 293.128906 C 120.675781 292.785156 120.570312 292.40625 120.589844 291.996094 C 120.292969 287.386719 120.378906 282.777344 120.84375 278.179688 " fill-opacity="1" fill-rule="nonzero"/><path fill="#4a3b42" d="M 245.214844 339.941406 C 240.394531 339.941406 236.4375 336.058594 236.265625 335.894531 L 236.125 335.753906 L 236.125 334.96875 L 237.082031 334.96875 L 237.082031 335.347656 C 237.8125 336.023438 241.269531 338.988281 245.214844 338.988281 C 246.753906 338.945312 248.230469 338.613281 249.640625 337.980469 C 251.046875 337.355469 252.277344 336.480469 253.339844 335.363281 L 253.339844 334.957031 L 254.296875 334.957031 L 254.296875 335.722656 L 254.183594 335.855469 C 253.03125 337.121094 251.675781 338.109375 250.117188 338.820312 C 248.5625 339.53125 246.925781 339.90625 245.214844 339.941406 Z M 245.214844 339.941406 " fill-opacity="1" fill-rule="nonzero"/><path fill="#4a3b42" d="M 297.664062 339.941406 C 292.84375 339.941406 288.886719 336.058594 288.722656 335.894531 L 288.574219 335.753906 L 288.574219 334.96875 L 289.535156 334.96875 L 289.535156 335.347656 C 290.265625 336.023438 293.726562 338.988281 297.664062 338.988281 C 299.207031 338.945312 300.679688 338.609375 302.089844 337.980469 C 303.5 337.355469 304.734375 336.476562 305.796875 335.363281 L 305.796875 334.957031 L 306.75 334.957031 L 306.75 335.722656 L 306.640625 335.855469 C 305.488281 337.121094 304.132812 338.113281 302.574219 338.820312 C 301.015625 339.53125 299.378906 339.90625 297.664062 339.941406 Z M 297.664062 339.941406 " fill-opacity="1" fill-rule="nonzero"/><path fill="#4a3b42" d="M 137.675781 271.386719 C 137.660156 271.285156 137.632812 271.183594 137.585938 271.09375 C 137.492188 270.957031 137.367188 270.859375 137.210938 270.796875 C 137.058594 270.730469 136.902344 270.714844 136.738281 270.746094 C 136.546875 270.777344 136.390625 270.867188 136.261719 271.011719 C 136.132812 271.152344 136.0625 271.320312 136.054688 271.511719 C 136.046875 271.683594 136.085938 271.84375 136.171875 271.992188 C 136.261719 272.136719 136.378906 272.25 136.535156 272.324219 C 136.695312 272.40625 136.867188 272.425781 137.046875 272.386719 C 137.226562 272.347656 137.375 272.257812 137.492188 272.125 C 137.507812 272.097656 137.519531 272.066406 137.53125 272.042969 C 137.691406 271.847656 137.742188 271.628906 137.675781 271.386719 Z M 137.675781 271.386719 " fill-opacity="1" fill-rule="nonzero"/><path fill="#4a3b42" d="M 150.9375 270.15625 C 150.925781 270.050781 150.894531 269.953125 150.851562 269.855469 C 150.746094 269.707031 150.613281 269.605469 150.445312 269.542969 C 150.273438 269.484375 150.101562 269.476562 149.929688 269.527344 C 149.757812 269.574219 149.613281 269.664062 149.5 269.804688 C 149.390625 269.941406 149.328125 270.105469 149.3125 270.285156 C 149.308594 270.453125 149.347656 270.609375 149.4375 270.757812 C 149.523438 270.90625 149.644531 271.015625 149.796875 271.089844 C 149.960938 271.167969 150.132812 271.1875 150.3125 271.148438 C 150.488281 271.113281 150.636719 271.023438 150.753906 270.886719 C 150.769531 270.859375 150.785156 270.832031 150.792969 270.800781 C 150.953125 270.609375 151 270.394531 150.9375 270.15625 Z M 150.9375 270.15625 " fill-opacity="1" fill-rule="nonzero"/><path fill="#4a3b42" d="M 143.09375 278.613281 C 143.164062 278.566406 143.277344 278.71875 143.582031 278.757812 C 144.0625 278.773438 144.535156 278.746094 145.007812 278.667969 C 145.710938 278.632812 146.359375 278.421875 146.949219 278.035156 C 147.234375 277.851562 147.417969 277.59375 147.488281 277.261719 C 147.445312 277.011719 146.988281 276.695312 146.652344 276.339844 C 145.21875 274.957031 144.464844 273.09375 144.601562 271.742188 C 144.742188 270.390625 145.324219 269.707031 145.421875 269.792969 C 145.515625 269.882812 145.113281 270.542969 145.113281 271.753906 C 145.148438 272.554688 145.332031 273.3125 145.671875 274.035156 C 146.011719 274.761719 146.476562 275.390625 147.070312 275.929688 C 147.359375 276.289062 147.824219 276.460938 148.058594 277.125 C 148.097656 277.292969 148.082031 277.453125 148.007812 277.609375 C 147.960938 277.742188 147.894531 277.871094 147.808594 277.984375 C 147.664062 278.179688 147.488281 278.351562 147.292969 278.496094 C 146.71875 278.832031 146.101562 279.050781 145.445312 279.15625 C 144.789062 279.257812 144.136719 279.242188 143.484375 279.101562 C 143.085938 278.902344 143.03125 278.625 143.09375 278.613281 Z M 143.09375 278.613281 " fill-opacity="1" fill-rule="nonzero"/><path fill="#4a3b42" d="M 138.449219 267.90625 C 138.300781 268.164062 137.300781 267.410156 135.945312 267.796875 C 134.585938 268.183594 134.164062 269.386719 133.902344 269.25 C 133.765625 269.195312 133.804688 268.855469 134.105469 268.410156 C 134.53125 267.828125 135.089844 267.433594 135.777344 267.230469 C 136.46875 267.027344 137.148438 267.054688 137.820312 267.3125 C 138.316406 267.523438 138.53125 267.789062 138.449219 267.90625 Z M 138.449219 267.90625 " fill-opacity="1" fill-rule="nonzero"/><path fill="#4a3b42" d="M 151.773438 267.160156 C 151.574219 267.371094 150.917969 266.574219 149.746094 266.609375 C 148.574219 266.648438 147.988281 267.519531 147.773438 267.320312 C 147.660156 267.238281 147.773438 266.960938 148.089844 266.648438 C 148.5625 266.25 149.109375 266.039062 149.726562 266.015625 C 150.34375 265.984375 150.902344 266.152344 151.402344 266.515625 C 151.769531 266.792969 151.882812 267.066406 151.773438 267.160156 Z M 151.773438 267.160156 " fill-opacity="1" fill-rule="nonzero"/><path fill="#4a3b42" d="M 145.808594 281.585938 C 145.863281 281.585938 145.996094 281.777344 145.925781 282.183594 C 145.796875 282.777344 145.453125 283.203125 144.894531 283.453125 C 144.144531 283.792969 143.355469 283.90625 142.542969 283.785156 C 142.28125 283.765625 142.027344 283.703125 141.785156 283.601562 C 141.542969 283.503906 141.320312 283.367188 141.125 283.195312 C 140.921875 283.023438 140.757812 282.828125 140.617188 282.605469 C 140.484375 282.378906 140.382812 282.140625 140.320312 281.882812 C 140.316406 281.792969 140.316406 281.699219 140.320312 281.605469 L 140.320312 281.179688 L 140.726562 281.324219 C 142.242188 281.828125 143.777344 281.871094 145.320312 281.453125 C 146.472656 281.148438 147.121094 280.765625 147.222656 280.902344 C 147.324219 281.035156 146.691406 281.535156 145.472656 281.941406 C 143.824219 282.460938 142.179688 282.441406 140.550781 281.878906 L 140.9375 281.59375 L 140.9375 281.785156 C 141.046875 282.179688 141.261719 282.5 141.578125 282.757812 C 141.898438 283.015625 142.261719 283.164062 142.667969 283.191406 C 143.371094 283.296875 144.054688 283.21875 144.714844 282.964844 C 145.148438 282.789062 145.457031 282.488281 145.648438 282.0625 C 145.734375 281.796875 145.726562 281.597656 145.808594 281.585938 Z M 145.808594 281.585938 " fill-opacity="1" fill-rule="nonzero"/><path fill="#4a3b42" d="M 152.441406 361.25 L 152.359375 361.25 L 84.242188 357.414062 C 83.84375 357.390625 83.5 357.246094 83.199219 356.984375 C 82.898438 356.726562 82.707031 356.402344 82.625 356.011719 C 82.542969 355.625 82.59375 355.25 82.765625 354.890625 C 82.9375 354.535156 83.199219 354.265625 83.558594 354.089844 L 118.257812 336.734375 L 114.515625 334.382812 C 114.363281 334.277344 111.34375 332.128906 112.613281 327.585938 C 114.023438 322.554688 118.664062 322.507812 119.589844 322.597656 C 120.023438 322.601562 120.449219 322.648438 120.871094 322.730469 C 121.292969 322.816406 121.703125 322.941406 122.101562 323.105469 C 122.5 323.269531 122.878906 323.46875 123.238281 323.707031 C 123.597656 323.941406 123.933594 324.210938 124.242188 324.511719 C 124.554688 324.8125 124.832031 325.140625 125.074219 325.492188 C 125.324219 325.847656 125.53125 326.21875 125.707031 326.613281 C 125.878906 327.007812 126.015625 327.414062 126.117188 327.832031 C 126.210938 328.25 126.265625 328.675781 126.285156 329.105469 L 125.015625 329.105469 C 125 328.757812 124.953125 328.410156 124.871094 328.070312 C 124.789062 327.726562 124.675781 327.394531 124.53125 327.078125 C 124.386719 326.757812 124.210938 326.453125 124.011719 326.171875 C 123.808594 325.882812 123.582031 325.617188 123.328125 325.375 C 123.074219 325.132812 122.796875 324.914062 122.503906 324.726562 C 122.210938 324.535156 121.898438 324.375 121.578125 324.242188 C 121.25 324.113281 120.914062 324.015625 120.570312 323.945312 C 120.226562 323.878906 119.878906 323.847656 119.527344 323.847656 C 119.210938 323.816406 118.894531 323.8125 118.578125 323.839844 C 118.257812 323.867188 117.945312 323.921875 117.636719 324.007812 C 117.328125 324.089844 117.03125 324.199219 116.742188 324.332031 C 116.453125 324.46875 116.179688 324.628906 115.921875 324.8125 C 115.660156 324.996094 115.417969 325.203125 115.195312 325.429688 C 114.972656 325.65625 114.769531 325.90625 114.59375 326.167969 C 114.410156 326.429688 114.257812 326.707031 114.125 327 C 113.996094 327.289062 113.894531 327.589844 113.820312 327.902344 C 112.792969 331.574219 115.195312 333.273438 115.21875 333.285156 L 119.894531 336.230469 L 153.394531 357.996094 C 153.71875 358.207031 153.949219 358.496094 154.082031 358.859375 C 154.214844 359.222656 154.230469 359.59375 154.121094 359.964844 C 154.007812 360.335938 153.800781 360.640625 153.488281 360.871094 C 153.179688 361.105469 152.828125 361.222656 152.441406 361.226562 Z M 119.515625 337.527344 L 84.128906 355.226562 C 84.03125 355.269531 83.957031 355.34375 83.90625 355.441406 C 83.863281 355.542969 83.847656 355.644531 83.867188 355.75 C 83.890625 355.859375 83.941406 355.949219 84.023438 356.019531 C 84.105469 356.089844 84.203125 356.128906 84.3125 356.136719 L 152.410156 359.976562 C 152.519531 359.984375 152.621094 359.957031 152.714844 359.894531 C 152.804688 359.832031 152.867188 359.75 152.902344 359.644531 C 152.9375 359.539062 152.933594 359.433594 152.898438 359.332031 C 152.863281 359.226562 152.796875 359.148438 152.703125 359.085938 Z M 119.515625 337.527344 " fill-opacity="1" fill-rule="nonzero"/><g clip-path="url(#9720b93fdc)"><path fill="#ff7953" d="M 135.042969 345.035156 C 135.042969 345.035156 151.492188 349.3125 155.882812 360.894531 C 160.957031 374.214844 169.652344 424.914062 170.285156 428.316406 C 170.917969 431.714844 172.414062 438.09375 170.285156 441.921875 C 168.152344 445.746094 166.25 449.363281 166.25 451.269531 C 166.25 453.179688 166.675781 459.136719 166.675781 459.136719 C 166.675781 459.136719 157.316406 460.839844 152.644531 459.136719 C 152.644531 459.136719 152.222656 450.421875 152.007812 449.148438 C 151.800781 447.871094 150.105469 445.113281 150.105469 445.113281 C 150.105469 445.113281 146.933594 462.96875 146.300781 465.09375 C 146.300781 465.09375 127.378906 467.855469 115.902344 465.09375 C 104.421875 462.335938 89.96875 460.65625 80.1875 462.96875 C 80.1875 462.96875 78.0625 454.253906 78.488281 447.664062 L 73.816406 453.828125 L 72.75 459.539062 C 72.75 459.539062 62.921875 458.054688 59.75 454.65625 L 64.425781 445.511719 C 64.425781 445.511719 61.019531 439.554688 62.289062 432.964844 C 63.558594 426.371094 73.484375 378.925781 75.941406 372.375 C 78.808594 364.726562 78.0625 346.972656 102.773438 344.050781 C 102.773438 344.050781 106.757812 351.621094 119.300781 351.523438 C 133.078125 351.417969 135.042969 345.035156 135.042969 345.035156 Z M 135.042969 345.035156 " fill-opacity="1" fill-rule="nonzero"/></g><path fill="#fcb184" d="M 109.054688 328.199219 C 111.082031 325.761719 113.246094 323.226562 116.222656 322.140625 C 118.714844 321.234375 121.476562 321.507812 124.101562 321.863281 C 124.488281 321.921875 124.933594 322.019531 125.097656 322.371094 C 125.367188 322.964844 124.617188 323.492188 124 323.714844 L 121.464844 324.621094 C 120.828125 324.839844 119.5625 325.035156 119.128906 325.496094 C 118.699219 325.960938 119.066406 326.410156 119.070312 327.082031 C 119.070312 327.429688 118.992188 327.757812 118.832031 328.058594 C 118.667969 328.367188 118.445312 328.613281 118.15625 328.808594 C 118.300781 328.914062 118.421875 329.03125 118.53125 329.167969 C 118.640625 329.300781 118.726562 329.449219 118.796875 329.609375 C 118.867188 329.769531 118.917969 329.933594 118.945312 330.105469 C 118.972656 330.273438 118.980469 330.449219 118.960938 330.621094 C 118.941406 330.792969 118.90625 330.960938 118.84375 331.121094 C 118.785156 331.285156 118.707031 331.441406 118.605469 331.582031 C 118.503906 331.71875 118.386719 331.847656 118.257812 331.960938 C 118.125 332.074219 117.976562 332.167969 117.824219 332.238281 C 118.0625 332.472656 118.234375 332.75 118.328125 333.074219 C 118.425781 333.394531 118.429688 333.722656 118.355469 334.050781 C 118.183594 334.699219 117.871094 335.277344 117.421875 335.78125 C 116.261719 337.214844 114.785156 337.960938 113.363281 339.050781 C 111.148438 336.050781 109.296875 332.832031 107.8125 329.40625 " fill-opacity="1" fill-rule="nonzero"/><path fill="#4a3b42" d="M 165.5625 315.757812 C 165.84375 315.691406 166.289062 317.460938 166.554688 319.6875 C 166.824219 321.914062 166.839844 323.734375 166.554688 323.734375 C 166.269531 323.734375 166.25 321.945312 165.976562 319.757812 C 165.707031 317.566406 165.273438 315.828125 165.5625 315.757812 Z M 165.5625 315.757812 " fill-opacity="1" fill-rule="nonzero"/><path fill="#4a3b42" d="M 111.585938 350.441406 C 111.804688 349.691406 112.109375 348.980469 112.507812 348.308594 C 113.140625 346.976562 114.128906 345.074219 115.335938 342.746094 L 115.335938 343.007812 C 113.097656 339.25 110.164062 334.355469 106.964844 328.992188 L 106.421875 328.085938 L 106.867188 328.15625 C 102.652344 331.878906 98.808594 335.945312 95.320312 340.359375 C 92.644531 343.71875 91.101562 345.863281 90.972656 345.773438 C 91.214844 345.191406 91.53125 344.65625 91.921875 344.167969 C 92.601562 343.175781 93.605469 341.753906 94.921875 340.050781 C 98.375 335.5625 102.230469 331.449219 106.480469 327.710938 L 106.746094 327.480469 L 106.929688 327.789062 L 107.46875 328.695312 L 115.792969 342.734375 L 115.867188 342.859375 L 115.796875 342.992188 C 114.53125 345.304688 113.546875 347.1875 112.816406 348.480469 C 112.492188 349.183594 112.082031 349.839844 111.585938 350.441406 Z M 111.585938 350.441406 " fill-opacity="1" fill-rule="nonzero"/><path fill="#4a3b42" d="M 191.671875 301.308594 C 191.671875 301.605469 191.648438 301.855469 191.585938 302.0625 C 191.53125 302.273438 191.460938 302.375 191.382812 302.375 C 191.300781 302.375 191.234375 302.273438 191.175781 302.0625 C 191.117188 301.855469 191.089844 301.605469 191.089844 301.308594 C 191.089844 301.011719 191.117188 300.761719 191.175781 300.554688 C 191.234375 300.347656 191.300781 300.242188 191.382812 300.242188 C 191.460938 300.242188 191.53125 300.347656 191.585938 300.554688 C 191.648438 300.761719 191.671875 301.011719 191.671875 301.308594 Z M 191.671875 301.308594 " fill-opacity="1" fill-rule="nonzero"/><path fill="#4a3b42" d="M 227.515625 446.933594 C 227.476562 446.554688 227.492188 446.179688 227.550781 445.804688 C 227.613281 445.054688 227.714844 443.976562 227.835938 442.601562 C 228.109375 439.804688 228.503906 435.78125 228.984375 430.8125 C 229.929688 420.863281 231.234375 407.105469 232.679688 391.921875 C 233.40625 383.675781 234.164062 375.816406 234.585938 368.792969 L 234.992188 369.058594 C 231.105469 370.867188 227.355469 372.917969 223.738281 375.210938 L 222.996094 375.683594 L 223.351562 374.878906 C 225.242188 370.621094 226.882812 366.277344 228.285156 361.839844 C 228.773438 360.261719 229.152344 359.035156 229.414062 358.179688 C 229.515625 357.738281 229.664062 357.316406 229.859375 356.910156 C 229.828125 357.363281 229.75 357.804688 229.617188 358.238281 C 229.421875 359.09375 229.097656 360.355469 228.632812 361.949219 C 227.324219 366.433594 225.722656 370.820312 223.835938 375.097656 L 223.449219 374.769531 C 227.078125 372.4375 230.84375 370.363281 234.75 368.546875 L 235.179688 368.339844 L 235.179688 368.816406 C 234.796875 375.890625 234.039062 383.710938 233.316406 391.984375 C 231.929688 407.175781 230.585938 420.925781 229.542969 430.871094 C 229.019531 435.84375 228.566406 439.867188 228.222656 442.636719 C 228.054688 444.027344 227.898438 445.105469 227.792969 445.808594 C 227.75 446.195312 227.660156 446.570312 227.515625 446.933594 Z M 227.515625 446.933594 " fill-opacity="1" fill-rule="nonzero"/><path fill="#4a3b42" d="M 261.101562 446.933594 C 260.984375 446.574219 260.902344 446.207031 260.875 445.828125 C 260.769531 445.097656 260.617188 444.023438 260.445312 442.65625 C 260.101562 439.886719 259.644531 435.863281 259.125 430.890625 C 258.078125 420.945312 256.742188 407.195312 255.355469 392.003906 C 254.628906 383.757812 253.875 375.910156 253.492188 368.835938 L 253.492188 368.363281 L 253.921875 368.5625 C 257.828125 370.382812 261.589844 372.457031 265.214844 374.789062 L 264.832031 375.117188 C 262.949219 370.839844 261.351562 366.457031 260.039062 361.964844 C 259.570312 360.375 259.253906 359.109375 259.046875 358.253906 C 258.914062 357.820312 258.839844 357.382812 258.8125 356.929688 C 259.003906 357.335938 259.148438 357.757812 259.253906 358.199219 C 259.515625 359.054688 259.886719 360.28125 260.382812 361.859375 C 261.769531 366.285156 263.394531 370.628906 265.265625 374.878906 L 265.625 375.683594 L 264.878906 375.210938 C 261.265625 372.917969 257.515625 370.867188 253.632812 369.058594 L 254.039062 368.792969 C 254.433594 375.816406 255.1875 383.667969 255.941406 391.921875 C 257.378906 407.105469 258.6875 420.863281 259.640625 430.8125 C 260.121094 435.78125 260.515625 439.804688 260.785156 442.601562 C 260.90625 443.976562 261.003906 445.054688 261.074219 445.804688 C 261.128906 446.179688 261.140625 446.554688 261.101562 446.933594 Z M 261.101562 446.933594 " fill-opacity="1" fill-rule="nonzero"/><path fill="#4a3b42" d="M 203.25 415.335938 C 203.304688 416.042969 203.265625 416.742188 203.136719 417.433594 C 202.996094 418.78125 202.753906 420.714844 202.449219 423.105469 C 201.816406 427.894531 200.910156 434.492188 199.914062 441.78125 C 198.917969 449.070312 198.007812 455.667969 197.324219 460.449219 C 196.976562 462.835938 196.691406 464.765625 196.464844 466.097656 C 196.402344 466.804688 196.25 467.488281 196.011719 468.152344 C 195.953125 467.445312 195.992188 466.742188 196.125 466.039062 C 196.265625 464.703125 196.507812 462.757812 196.816406 460.371094 C 197.449219 455.585938 198.351562 448.980469 199.355469 441.6875 C 200.359375 434.390625 201.257812 427.800781 201.949219 423.019531 C 202.289062 420.628906 202.585938 418.699219 202.804688 417.367188 C 202.871094 416.671875 203.019531 415.996094 203.25 415.335938 Z M 203.25 415.335938 " fill-opacity="1" fill-rule="nonzero"/><path fill="#4a3b42" d="M 285.121094 415.335938 C 285.359375 416 285.507812 416.683594 285.570312 417.386719 C 285.789062 418.71875 286.082031 420.644531 286.429688 423.035156 C 287.066406 427.820312 288.011719 434.417969 289.019531 441.707031 C 290.027344 448.996094 290.921875 455.605469 291.554688 460.386719 C 291.863281 462.777344 292.105469 464.722656 292.242188 466.058594 C 292.378906 466.75 292.414062 467.449219 292.355469 468.152344 C 292.117188 467.488281 291.96875 466.804688 291.90625 466.097656 C 291.683594 464.765625 291.390625 462.835938 291.042969 460.449219 C 290.410156 455.667969 289.464844 449.070312 288.457031 441.78125 C 287.445312 434.492188 286.554688 427.894531 285.917969 423.105469 C 285.605469 420.714844 285.363281 418.78125 285.226562 417.433594 C 285.097656 416.742188 285.058594 416.042969 285.121094 415.335938 Z M 285.121094 415.335938 " fill-opacity="1" fill-rule="nonzero"/><path fill="#ff7953" d="M 230.46875 386.382812 C 230.304688 386.179688 230.09375 386.085938 229.832031 386.097656 C 229.730469 386.101562 229.632812 386.128906 229.539062 386.171875 C 229.445312 386.214844 229.367188 386.277344 229.296875 386.355469 C 229.230469 386.433594 229.1875 386.523438 229.15625 386.621094 C 229.125 386.71875 229.117188 386.820312 229.128906 386.921875 C 229.167969 387.230469 229.335938 387.441406 229.625 387.558594 C 229.765625 387.613281 229.914062 387.625 230.066406 387.585938 C 230.21875 387.550781 230.34375 387.472656 230.449219 387.351562 C 230.570312 387.21875 230.632812 387.054688 230.636719 386.871094 C 230.640625 386.6875 230.582031 386.527344 230.46875 386.382812 Z M 230.46875 386.382812 " fill-opacity="1" fill-rule="nonzero"/><path fill="#ff7953" d="M 227.746094 410.851562 C 227.582031 410.648438 227.367188 410.554688 227.109375 410.574219 C 227.007812 410.578125 226.910156 410.597656 226.816406 410.644531 C 226.726562 410.6875 226.644531 410.75 226.578125 410.828125 C 226.511719 410.90625 226.464844 410.996094 226.433594 411.09375 C 226.402344 411.195312 226.394531 411.292969 226.40625 411.394531 C 226.453125 411.699219 226.617188 411.910156 226.902344 412.03125 C 227.046875 412.089844 227.195312 412.097656 227.347656 412.058594 C 227.496094 412.023438 227.625 411.949219 227.726562 411.828125 C 227.847656 411.691406 227.914062 411.527344 227.917969 411.34375 C 227.921875 411.15625 227.863281 410.992188 227.746094 410.851562 Z M 227.746094 410.851562 " fill-opacity="1" fill-rule="nonzero"/><path fill="#ff7953" d="M 225.027344 435.363281 C 224.925781 435.226562 224.792969 435.136719 224.625 435.09375 C 224.464844 435.046875 224.304688 435.058594 224.152344 435.121094 C 223.996094 435.183594 223.875 435.289062 223.789062 435.433594 C 223.703125 435.578125 223.667969 435.734375 223.683594 435.902344 C 223.734375 436.207031 223.902344 436.417969 224.1875 436.535156 C 224.332031 436.589844 224.480469 436.601562 224.632812 436.566406 C 224.78125 436.527344 224.910156 436.449219 225.011719 436.335938 C 225.128906 436.191406 225.191406 436.035156 225.191406 435.847656 C 225.195312 435.667969 225.140625 435.503906 225.027344 435.363281 Z M 225.027344 435.363281 " fill-opacity="1" fill-rule="nonzero"/><path fill="#ffe0d7" d="M 358.101562 470.335938 C 357.945312 469.417969 357.882812 468.5 357.914062 467.570312 C 357.867188 465.785156 357.832031 463.210938 357.847656 460.027344 C 357.847656 453.683594 358.011719 444.851562 358.210938 435.132812 C 358.40625 425.414062 358.535156 416.628906 358.644531 410.253906 C 358.691406 407.085938 358.726562 404.511719 358.753906 402.714844 C 358.710938 401.785156 358.765625 400.863281 358.90625 399.949219 C 359.058594 400.863281 359.117188 401.785156 359.09375 402.714844 C 359.140625 404.492188 359.167969 407.070312 359.160156 410.257812 C 359.160156 416.601562 358.988281 425.425781 358.792969 435.148438 C 358.597656 444.863281 358.46875 453.65625 358.355469 460.027344 C 358.308594 463.199219 358.277344 465.773438 358.253906 467.570312 C 358.292969 468.496094 358.238281 469.417969 358.101562 470.335938 Z M 358.101562 470.335938 " fill-opacity="1" fill-rule="nonzero"/><path fill="#ff7953" d="M 356.003906 431.398438 C 355.84375 431.082031 355.585938 430.921875 355.234375 430.921875 C 355.195312 430.925781 355.15625 430.933594 355.121094 430.953125 L 355.0625 430.953125 C 354.960938 430.972656 354.871094 431.003906 354.785156 431.054688 C 354.746094 431.0625 354.714844 431.074219 354.679688 431.09375 C 354.535156 431.199219 354.433594 431.339844 354.371094 431.507812 C 354.3125 431.679688 354.304688 431.851562 354.351562 432.027344 C 354.441406 432.367188 354.652344 432.589844 354.984375 432.695312 C 355.199219 432.769531 355.410156 432.753906 355.613281 432.667969 C 355.816406 432.574219 355.964844 432.429688 356.058594 432.21875 C 356.164062 431.941406 356.144531 431.664062 356.003906 431.398438 Z M 356.003906 431.398438 " fill-opacity="1" fill-rule="nonzero"/><path fill="#ff7953" d="M 356.003906 455.160156 C 355.839844 454.847656 355.585938 454.6875 355.234375 454.675781 C 355.195312 454.6875 355.15625 454.699219 355.121094 454.71875 L 355.0625 454.71875 C 354.960938 454.734375 354.871094 454.765625 354.785156 454.820312 C 354.746094 454.828125 354.714844 454.839844 354.679688 454.855469 C 354.535156 454.960938 354.433594 455.101562 354.371094 455.273438 C 354.3125 455.441406 354.304688 455.613281 354.351562 455.789062 C 354.441406 456.128906 354.652344 456.351562 354.984375 456.460938 C 355.199219 456.53125 355.410156 456.519531 355.613281 456.429688 C 355.816406 456.339844 355.964844 456.191406 356.058594 455.984375 C 356.164062 455.703125 356.144531 455.425781 356.003906 455.160156 Z M 356.003906 455.160156 " fill-opacity="1" fill-rule="nonzero"/><path fill="#4a3b42" d="M 335.335938 517.296875 L 410.394531 517.296875 C 410.796875 517.296875 411.195312 517.335938 411.59375 517.414062 C 411.988281 517.492188 412.375 517.613281 412.75 517.765625 C 413.121094 517.917969 413.480469 518.109375 413.8125 518.335938 C 414.152344 518.558594 414.460938 518.8125 414.75 519.101562 C 415.03125 519.386719 415.289062 519.695312 415.515625 520.035156 C 415.738281 520.371094 415.929688 520.722656 416.082031 521.097656 C 416.238281 521.472656 416.355469 521.855469 416.433594 522.253906 C 416.511719 522.648438 416.550781 523.054688 416.550781 523.457031 L 416.550781 533.117188 C 416.550781 533.386719 416.5 533.644531 416.398438 533.898438 C 416.292969 534.144531 416.144531 534.367188 415.953125 534.558594 C 415.765625 534.75 415.542969 534.894531 415.292969 534.996094 C 415.046875 535.101562 414.785156 535.152344 414.515625 535.152344 L 331.230469 535.152344 C 330.960938 535.152344 330.703125 535.101562 330.453125 534.996094 C 330.203125 534.894531 329.984375 534.75 329.792969 534.558594 C 329.601562 534.367188 329.453125 534.144531 329.351562 533.898438 C 329.246094 533.644531 329.195312 533.386719 329.195312 533.117188 L 329.195312 523.457031 C 329.195312 523.054688 329.238281 522.652344 329.3125 522.257812 C 329.390625 521.859375 329.507812 521.476562 329.664062 521.105469 C 329.816406 520.730469 330.007812 520.375 330.230469 520.039062 C 330.453125 519.703125 330.707031 519.390625 330.996094 519.109375 C 331.277344 518.820312 331.589844 518.566406 331.921875 518.339844 C 332.257812 518.117188 332.613281 517.925781 332.988281 517.769531 C 333.355469 517.613281 333.742188 517.5 334.136719 517.417969 C 334.53125 517.335938 334.933594 517.296875 335.335938 517.296875 Z M 335.335938 517.296875 " fill-opacity="1" fill-rule="nonzero"/><g clip-path="url(#365423e6e5)"><path fill="#ffe0d7" d="M 333.078125 535.152344 L 412.644531 535.152344 L 412.644531 594.046875 L 333.078125 594.046875 Z M 333.078125 535.152344 " fill-opacity="1" fill-rule="nonzero"/></g><path fill="#ff7953" d="M 333.078125 535.152344 L 412.644531 535.152344 L 412.644531 537.496094 L 333.078125 540.046875 Z M 333.078125 535.152344 " fill-opacity="1" fill-rule="nonzero"/><g clip-path="url(#3d06053914)"><path fill="#fcb184" d="M 535.332031 291.78125 C 535.21875 291.570312 535.050781 291.425781 534.828125 291.34375 C 534.632812 291.277344 534.441406 291.277344 534.246094 291.34375 C 534.191406 291.363281 534.140625 291.390625 534.09375 291.425781 C 534.1875 291.179688 534.296875 290.941406 534.375 290.6875 C 534.449219 290.4375 534.484375 290.277344 534.527344 290.054688 C 534.601562 289.71875 534.5625 289.398438 534.398438 289.09375 C 534.300781 288.949219 534.175781 288.832031 534.03125 288.738281 C 533.882812 288.648438 533.722656 288.589844 533.550781 288.5625 C 533.378906 288.539062 533.210938 288.542969 533.042969 288.585938 C 532.875 288.628906 532.722656 288.707031 532.582031 288.8125 C 532.257812 289.058594 531.96875 289.339844 531.710938 289.65625 C 531.398438 290.003906 531.132812 290.34375 530.859375 290.679688 L 532.382812 287.585938 C 532.523438 287.273438 532.558594 286.945312 532.492188 286.605469 C 532.382812 286.199219 532.140625 285.917969 531.753906 285.757812 C 531.464844 285.632812 531.160156 285.597656 530.84375 285.644531 C 530.535156 285.691406 530.253906 285.808594 530.007812 286.007812 C 529.667969 286.292969 529.363281 286.609375 529.09375 286.957031 L 528.367188 287.839844 C 528.164062 288.089844 527.992188 288.316406 527.800781 288.558594 C 528.191406 287.832031 528.425781 287.058594 528.5 286.238281 C 528.550781 285.855469 528.480469 285.5 528.285156 285.171875 C 528.140625 284.972656 527.949219 284.835938 527.71875 284.75 C 527.488281 284.664062 527.253906 284.652344 527.015625 284.707031 C 526.632812 284.796875 526.320312 284.996094 526.070312 285.296875 C 525.859375 285.539062 525.734375 285.742188 525.582031 285.929688 C 523.132812 289.25 520.949219 292.734375 519.042969 296.386719 C 519.042969 296.195312 519.082031 295.992188 519.09375 295.753906 C 519.152344 294.695312 519.152344 293.640625 519.09375 292.582031 C 519.09375 292.28125 519.0625 291.949219 519.035156 291.660156 C 519.042969 291.226562 518.9375 290.824219 518.710938 290.453125 C 518.523438 290.1875 518.265625 290.023438 517.945312 289.960938 C 517.757812 289.925781 517.570312 289.9375 517.394531 290.007812 C 517.210938 290.074219 517.0625 290.183594 516.945312 290.335938 C 516.808594 290.511719 516.707031 290.707031 516.632812 290.917969 L 516.429688 291.390625 C 514.886719 295.128906 514.011719 298.484375 513.890625 300.085938 C 513.730469 300.441406 513.601562 300.8125 513.496094 301.1875 C 513.242188 302.265625 513.394531 303.285156 513.949219 304.246094 C 514.511719 305.242188 515.1875 306.117188 515.851562 307.132812 C 516.515625 308.148438 517.121094 309.085938 517.863281 309.953125 C 518.515625 310.804688 519.363281 311.363281 520.398438 311.628906 C 520.898438 311.726562 521.398438 311.726562 521.894531 311.628906 C 522.085938 311.632812 522.277344 311.621094 522.46875 311.59375 C 523.496094 311.398438 524.421875 310.976562 525.246094 310.324219 C 526.414062 309.375 527.414062 308.277344 528.238281 307.015625 C 529.171875 305.648438 530.09375 304.121094 531.015625 302.464844 C 532.601562 299.652344 533.96875 296.734375 535.109375 293.714844 C 535.253906 293.4375 535.375 293.152344 535.476562 292.859375 C 535.546875 292.484375 535.496094 292.125 535.332031 291.78125 Z M 535.332031 291.78125 " fill-opacity="1" fill-rule="nonzero"/></g><path fill="#fcb184" d="M 374.957031 301.914062 C 373.761719 299.863281 372.191406 298.171875 370.234375 296.835938 C 369.253906 296.171875 368.179688 295.738281 367.015625 295.527344 C 365.851562 295.3125 364.695312 295.34375 363.542969 295.617188 C 362.433594 295.960938 361.449219 296.53125 360.597656 297.320312 C 359.746094 298.109375 359.105469 299.042969 358.679688 300.121094 C 357.816406 302.242188 357.980469 304.996094 358.679688 307.171875 " fill-opacity="1" fill-rule="nonzero"/><g clip-path="url(#5a1378b4a0)"><path fill="#4a3b42" d="M 403.6875 568 C 403.6875 568 401.558594 579.699219 392.949219 582.589844 C 384.339844 585.484375 377.839844 581.742188 375.132812 594.078125 L 410.0625 594.078125 L 414.210938 589.1875 L 414.210938 594.078125 L 427.714844 594.078125 L 426.867188 568.027344 Z M 403.6875 568 " fill-opacity="1" fill-rule="nonzero"/></g><g clip-path="url(#0718756e20)"><path fill="#4a3b42" d="M 472.949219 568 C 472.949219 568 474.09375 579.699219 469.359375 582.589844 C 464.621094 585.484375 460.109375 585.191406 461.066406 594.078125 L 486.707031 594.078125 L 488.988281 589.1875 L 488.988281 594.078125 L 491.804688 594.078125 L 489.015625 568.027344 Z M 472.949219 568 " fill-opacity="1" fill-rule="nonzero"/></g><path fill="#4a3b42" d="M 421.1875 269.050781 C 421.464844 274.109375 420.679688 279 418.835938 283.71875 C 417.566406 286.976562 415.765625 290.136719 415.484375 293.625 C 415.394531 294.832031 415.480469 296.019531 415.75 297.199219 C 416.015625 298.375 416.453125 299.484375 417.0625 300.527344 C 417.121094 300.691406 417.210938 300.835938 417.320312 300.964844 C 417.433594 301.09375 417.566406 301.199219 417.714844 301.285156 C 417.863281 301.367188 418.027344 301.421875 418.195312 301.449219 C 418.363281 301.476562 418.535156 301.476562 418.703125 301.441406 C 423.101562 301.292969 427.40625 300.574219 431.617188 299.285156 C 431.84375 299.257812 432.054688 299.183594 432.253906 299.0625 C 432.453125 298.949219 432.617188 298.792969 432.753906 298.609375 C 432.886719 298.421875 432.976562 298.214844 433.023438 297.988281 C 433.070312 297.761719 433.070312 297.539062 433.023438 297.3125 C 433.210938 288.152344 428.753906 279.585938 424.054688 271.722656 " fill-opacity="1" fill-rule="nonzero"/><path fill="#4a3b42" d="M 450.226562 254.207031 C 453.511719 258.292969 452.976562 264.113281 453.90625 269.277344 C 454.941406 275.042969 457.921875 280.242188 459.914062 285.742188 C 461.90625 291.242188 462.816406 297.6875 459.855469 302.730469 C 453.621094 302.585938 447.398438 302.195312 441.1875 301.554688 C 440.347656 298.570312 439.742188 295.53125 439.378906 292.449219 C 439.007812 289.371094 438.875 286.277344 438.984375 283.175781 C 439.089844 280.074219 439.4375 276.996094 440.019531 273.949219 C 440.597656 270.902344 441.414062 267.914062 442.457031 264.992188 C 443.921875 260.933594 445.9375 256.890625 449.332031 254.207031 " fill-opacity="1" fill-rule="nonzero"/><path fill="#a4d3f4" d="M 404.375 372.347656 L 393.355469 576.074219 L 431.300781 576.074219 C 431.300781 576.074219 435.339844 514.898438 435.691406 485.808594 L 439.738281 376.746094 Z M 404.375 372.347656 " fill-opacity="1" fill-rule="nonzero"/><path fill="#a4d3f4" d="M 428.75 374.222656 L 459.195312 576.074219 L 496.722656 576.074219 C 496.722656 576.074219 492.207031 534.550781 483.914062 485.40625 L 468.183594 372.347656 Z M 428.75 374.222656 " fill-opacity="1" fill-rule="nonzero"/><path fill="#fcb184" d="M 420.910156 254.875 C 419.511719 258.371094 418.597656 261.992188 418.167969 265.730469 C 417.738281 269.472656 417.804688 273.199219 418.371094 276.925781 C 420.234375 289.445312 429.976562 290.921875 434.230469 290.488281 C 439.195312 289.984375 446.914062 285.875 448.90625 277.253906 C 450.898438 268.636719 450.703125 253.886719 450.703125 253.886719 Z M 420.910156 254.875 " fill-opacity="1" fill-rule="nonzero"/><path fill="#fcb184" d="M 449.210938 275.855469 C 449.210938 275.855469 449.054688 279.664062 449.054688 294.824219 L 431.433594 295.195312 L 433.050781 277.292969 Z M 449.210938 275.855469 " fill-opacity="1" fill-rule="nonzero"/><path fill="#ff7953" d="M 425.324219 295.21875 C 425.324219 295.21875 406.292969 296.941406 404.898438 312.550781 C 403.503906 328.164062 402.933594 367.742188 402.933594 367.742188 C 402.933594 367.742188 402.300781 376.335938 412.859375 377.691406 C 423.421875 379.050781 459.988281 377.609375 459.988281 377.609375 C 459.988281 377.609375 470.234375 378.140625 470.773438 368.410156 C 471.308594 358.679688 470.171875 315.261719 469.503906 308.667969 C 468.53125 299.300781 460.105469 294.964844 448.15625 294.964844 Z M 425.324219 295.21875 " fill-opacity="1" fill-rule="nonzero"/><path fill="#ff7953" d="M 465.546875 300.300781 C 465.546875 300.300781 480.96875 316.34375 489.597656 326.046875 C 489.597656 326.046875 504.921875 306.320312 512.46875 296.976562 L 527.394531 310.476562 C 527.394531 310.476562 509.324219 342.195312 499.90625 348.863281 C 489.386719 356.339844 476.632812 351.828125 464.386719 335.292969 C 452.136719 318.753906 465.546875 300.300781 465.546875 300.300781 Z M 465.546875 300.300781 " fill-opacity="1" fill-rule="nonzero"/><path fill="#ff7953" d="M 439.125 306.269531 C 439.125 306.269531 415.136719 339.800781 399.972656 349.640625 C 388.554688 357.054688 378.449219 353.640625 374.941406 347.808594 C 371.078125 341.382812 358.128906 307.3125 358.128906 307.3125 L 377.207031 300.863281 C 377.207031 300.863281 384.976562 317.625 389.652344 326.75 C 389.652344 326.75 400.230469 312.945312 408.972656 302.640625 C 417.710938 292.339844 444.066406 300.585938 439.125 306.269531 Z M 439.125 306.269531 " fill-opacity="1" fill-rule="nonzero"/><path fill="#fcb184" d="M 447.59375 267.917969 C 448.328125 266.71875 449.28125 265.722656 450.441406 264.929688 C 451.640625 264.238281 453.296875 264.128906 454.324219 265.0625 C 455.058594 265.855469 455.40625 266.792969 455.355469 267.878906 C 455.414062 268.910156 455.238281 269.898438 454.832031 270.847656 C 454.429688 271.796875 453.835938 272.609375 453.058594 273.285156 C 451.457031 274.550781 448.992188 274.738281 447.417969 273.449219 Z M 447.59375 267.917969 " fill-opacity="1" fill-rule="nonzero"/><path fill="#4a3b42" d="M 449.210938 271.78125 C 449.289062 271.636719 449.902344 272.097656 450.90625 271.84375 C 451.492188 271.636719 451.957031 271.269531 452.300781 270.753906 C 452.792969 270.148438 453.125 269.46875 453.292969 268.710938 C 453.367188 268.355469 453.355469 268.011719 453.253906 267.667969 C 453.15625 267.320312 452.980469 267.019531 452.734375 266.761719 C 452.5 266.605469 452.265625 266.605469 452.027344 266.761719 C 451.792969 266.898438 451.597656 267.082031 451.445312 267.304688 C 451.199219 267.714844 450.878906 268.054688 450.492188 268.328125 C 450.175781 268.5 449.960938 268.46875 449.949219 268.398438 C 449.933594 268.328125 450.085938 268.25 450.289062 268.050781 C 450.578125 267.734375 450.824219 267.386719 451.027344 267.007812 C 451.214844 266.707031 451.457031 266.460938 451.761719 266.273438 C 451.960938 266.148438 452.179688 266.085938 452.417969 266.085938 C 452.652344 266.085938 452.871094 266.148438 453.066406 266.273438 C 453.421875 266.59375 453.667969 266.980469 453.8125 267.433594 C 453.953125 267.886719 453.972656 268.347656 453.867188 268.808594 C 453.6875 269.667969 453.320312 270.433594 452.757812 271.105469 C 452.335938 271.742188 451.757812 272.167969 451.027344 272.375 C 450.523438 272.492188 450.042969 272.429688 449.585938 272.199219 C 449.261719 272 449.15625 271.828125 449.210938 271.78125 Z M 449.210938 271.78125 " fill-opacity="1" fill-rule="nonzero"/><path fill="#4a3b42" d="M 449.035156 269.257812 C 449.035156 269.121094 449.300781 269.058594 449.667969 269.203125 C 450.148438 269.421875 450.492188 269.769531 450.703125 270.257812 C 450.960938 270.769531 450.949219 271.273438 450.671875 271.773438 C 450.417969 272.152344 450.039062 272.148438 450.039062 272.007812 C 450.039062 271.871094 450.128906 271.761719 450.214844 271.53125 C 450.335938 271.183594 450.320312 270.835938 450.164062 270.5 C 449.777344 269.648438 448.976562 269.539062 449.035156 269.257812 Z M 449.035156 269.257812 " fill-opacity="1" fill-rule="nonzero"/><path fill="#4a3b42" d="M 405.003906 344.515625 C 404.859375 344.515625 404.84375 342.503906 405.003906 339.269531 C 405.160156 336.035156 405.5625 331.574219 406.21875 326.679688 C 406.878906 321.777344 407.691406 317.371094 408.390625 314.214844 C 409.085938 311.054688 409.65625 309.136719 409.777344 309.136719 C 409.898438 309.136719 409.519531 311.128906 408.890625 314.296875 C 408.261719 317.460938 407.464844 321.847656 406.796875 326.734375 C 406.128906 331.617188 405.753906 336.066406 405.527344 339.285156 C 405.300781 342.5 405.160156 344.515625 405.003906 344.515625 Z M 405.003906 344.515625 " fill-opacity="1" fill-rule="nonzero"/><path fill="#ff7953" d="M 470.945312 342.949219 L 474.242188 392.28125 L 438.714844 397.71875 L 434.300781 381.773438 L 431.242188 397.71875 L 398.582031 393.089844 L 403.5625 345.414062 Z M 470.945312 342.949219 " fill-opacity="1" fill-rule="nonzero"/><path fill="#4a3b42" d="M 394.414062 325.097656 L 394.324219 325.097656 L 326.199219 321.773438 C 325.804688 321.753906 325.457031 321.613281 325.152344 321.355469 C 324.851562 321.097656 324.660156 320.773438 324.574219 320.386719 C 324.492188 320 324.535156 319.625 324.707031 319.265625 C 324.875 318.90625 325.140625 318.636719 325.492188 318.457031 L 361.078125 300.328125 L 366.070312 297.878906 C 366.152344 297.832031 368.605469 296.398438 367.972656 292.675781 C 367.929688 292.359375 367.859375 292.054688 367.765625 291.75 C 367.664062 291.449219 367.542969 291.15625 367.394531 290.878906 C 367.246094 290.597656 367.070312 290.332031 366.875 290.082031 C 366.679688 289.832031 366.460938 289.601562 366.222656 289.394531 C 365.988281 289.183594 365.730469 288.992188 365.460938 288.828125 C 365.191406 288.664062 364.90625 288.523438 364.613281 288.410156 C 364.316406 288.292969 364.011719 288.207031 363.699219 288.148438 C 363.390625 288.089844 363.074219 288.054688 362.753906 288.050781 C 362.410156 288.011719 362.058594 288.007812 361.707031 288.039062 C 361.359375 288.070312 361.015625 288.132812 360.675781 288.226562 C 360.339844 288.324219 360.011719 288.453125 359.703125 288.605469 C 359.390625 288.765625 359.09375 288.953125 358.8125 289.167969 C 358.535156 289.382812 358.28125 289.621094 358.050781 289.886719 C 357.820312 290.148438 357.613281 290.433594 357.441406 290.738281 C 357.261719 291.042969 357.117188 291.359375 357 291.691406 C 356.886719 292.019531 356.800781 292.359375 356.75 292.707031 L 355.480469 292.542969 C 355.542969 292.117188 355.644531 291.699219 355.785156 291.292969 C 355.925781 290.886719 356.105469 290.496094 356.320312 290.125 C 356.535156 289.75 356.78125 289.398438 357.066406 289.078125 C 357.347656 288.753906 357.65625 288.457031 357.996094 288.191406 C 358.335938 287.921875 358.695312 287.691406 359.078125 287.492188 C 359.460938 287.300781 359.859375 287.140625 360.269531 287.019531 C 360.683594 286.894531 361.105469 286.816406 361.535156 286.777344 C 361.960938 286.734375 362.390625 286.734375 362.820312 286.777344 C 363.738281 286.820312 368.359375 287.308594 369.234375 292.484375 C 370.019531 297.136719 366.765625 298.957031 366.628906 299.03125 L 362.636719 300.988281 L 395.335938 321.882812 C 395.660156 322.09375 395.890625 322.378906 396.027344 322.746094 C 396.160156 323.109375 396.175781 323.480469 396.066406 323.855469 C 395.957031 324.226562 395.746094 324.53125 395.4375 324.765625 C 395.128906 325 394.777344 325.121094 394.386719 325.121094 Z M 361.328125 301.625 L 326.070312 319.59375 C 325.855469 319.703125 325.769531 319.882812 325.824219 320.121094 C 325.875 320.359375 326.023438 320.484375 326.265625 320.496094 L 394.386719 323.824219 C 394.5 323.835938 394.597656 323.808594 394.691406 323.746094 C 394.78125 323.683594 394.84375 323.597656 394.871094 323.492188 C 394.90625 323.386719 394.90625 323.285156 394.871094 323.183594 C 394.835938 323.078125 394.769531 323 394.675781 322.941406 Z M 361.328125 301.625 " fill-opacity="1" fill-rule="nonzero"/><path fill="#ffe0d7" d="M 388.914062 313.613281 L 413.933594 329.535156 L 400.164062 347.539062 L 394.515625 344.367188 C 394.515625 344.367188 400.503906 396.914062 401.214844 414.214844 C 401.214844 414.214844 392.226562 418.3125 370.324219 415.976562 C 346.988281 413.492188 336.636719 410.96875 321.109375 417.328125 L 324.253906 339.800781 L 318.960938 341.921875 L 308.398438 322.121094 L 335.222656 310.121094 C 335.222656 310.121094 338.277344 329.050781 361.164062 330.597656 C 382.730469 332.050781 388.914062 313.613281 388.914062 313.613281 Z M 388.914062 313.613281 " fill-opacity="1" fill-rule="nonzero"/><path fill="#4a3b42" d="M 447.144531 270.265625 C 446.363281 268.800781 445.847656 267.246094 445.597656 265.609375 C 445.34375 263.96875 445.371094 262.335938 445.671875 260.707031 C 445.070312 262.015625 444.285156 263.199219 443.316406 264.269531 L 442.652344 260.132812 L 441.691406 262.929688 C 441.617188 263.230469 441.472656 263.492188 441.257812 263.710938 C 440.753906 264.011719 440.234375 264.058594 439.683594 263.84375 C 432.664062 262.25 425.554688 261.597656 418.359375 261.886719 C 418.023438 257.597656 420.75 253.480469 424.410156 251.21875 C 428.070312 248.964844 432.511719 248.320312 436.808594 248.339844 C 439.820312 248.257812 442.730469 248.75 445.546875 249.804688 C 446.949219 250.339844 448.207031 251.113281 449.316406 252.128906 C 450.429688 253.140625 451.3125 254.320312 451.96875 255.671875 C 453.132812 258.292969 453.042969 261.273438 452.929688 264.136719 C 452.210938 264.136719 451.535156 264.300781 450.898438 264.636719 C 450.261719 264.972656 449.746094 265.441406 449.34375 266.039062 C 448.558594 267.210938 447.980469 268.480469 447.613281 269.84375 " fill-opacity="1" fill-rule="nonzero"/><path fill="#4a3b42" d="M 433.273438 270.484375 C 433.289062 270.382812 433.316406 270.285156 433.359375 270.1875 C 433.464844 270.042969 433.597656 269.9375 433.765625 269.878906 C 433.9375 269.816406 434.109375 269.8125 434.28125 269.855469 C 434.453125 269.90625 434.597656 270 434.710938 270.136719 C 434.824219 270.277344 434.886719 270.433594 434.902344 270.613281 C 434.90625 270.78125 434.863281 270.941406 434.773438 271.085938 C 434.6875 271.230469 434.566406 271.34375 434.414062 271.417969 C 434.25 271.496094 434.082031 271.515625 433.902344 271.480469 C 433.722656 271.441406 433.578125 271.355469 433.464844 271.214844 C 433.464844 271.214844 433.464844 271.164062 433.417969 271.132812 C 433.261719 270.941406 433.210938 270.726562 433.273438 270.484375 Z M 433.273438 270.484375 " fill-opacity="1" fill-rule="nonzero"/><path fill="#4a3b42" d="M 420.035156 269.261719 C 420.050781 269.160156 420.082031 269.0625 420.125 268.96875 C 420.21875 268.832031 420.339844 268.734375 420.496094 268.671875 C 420.652344 268.609375 420.8125 268.59375 420.972656 268.621094 C 421.164062 268.65625 421.324219 268.742188 421.453125 268.886719 C 421.582031 269.03125 421.652344 269.199219 421.664062 269.394531 C 421.667969 269.5625 421.625 269.722656 421.539062 269.867188 C 421.449219 270.015625 421.328125 270.125 421.175781 270.199219 C 421.011719 270.277344 420.84375 270.296875 420.664062 270.261719 C 420.488281 270.222656 420.339844 270.136719 420.226562 269.996094 C 420.226562 269.996094 420.226562 269.941406 420.179688 269.914062 C 420.019531 269.722656 419.972656 269.503906 420.035156 269.261719 Z M 420.035156 269.261719 " fill-opacity="1" fill-rule="nonzero"/><path fill="#4a3b42" d="M 427.855469 277.710938 C 427.921875 277.710938 427.855469 278.019531 427.460938 278.1875 C 426.808594 278.320312 426.15625 278.335938 425.5 278.226562 C 424.84375 278.117188 424.230469 277.890625 423.65625 277.550781 C 423.460938 277.40625 423.289062 277.238281 423.144531 277.042969 C 423.058594 276.929688 422.992188 276.800781 422.945312 276.664062 C 422.867188 276.511719 422.847656 276.347656 422.894531 276.179688 C 423.125 275.546875 423.585938 275.351562 423.882812 274.988281 C 424.476562 274.453125 424.945312 273.820312 425.285156 273.097656 C 425.621094 272.375 425.804688 271.613281 425.839844 270.816406 C 425.839844 269.601562 425.386719 268.914062 425.535156 268.855469 C 425.679688 268.796875 426.261719 269.429688 426.351562 270.796875 C 426.441406 272.160156 425.714844 274.011719 424.296875 275.394531 C 423.964844 275.757812 423.507812 276.074219 423.464844 276.316406 C 423.535156 276.648438 423.714844 276.910156 424.003906 277.097656 C 424.59375 277.484375 425.242188 277.695312 425.945312 277.730469 C 426.421875 277.804688 426.894531 277.835938 427.371094 277.820312 C 427.644531 277.820312 427.785156 277.675781 427.855469 277.710938 Z M 427.855469 277.710938 " fill-opacity="1" fill-rule="nonzero"/><path fill="#4a3b42" d="M 432.5 267.007812 C 432.417969 266.894531 432.632812 266.628906 433.132812 266.417969 C 433.460938 266.292969 433.796875 266.222656 434.148438 266.210938 C 434.496094 266.191406 434.835938 266.234375 435.175781 266.335938 C 435.507812 266.433594 435.824219 266.585938 436.105469 266.789062 C 436.390625 266.988281 436.636719 267.234375 436.84375 267.519531 C 437.148438 267.953125 437.179688 268.296875 437.050781 268.347656 C 436.792969 268.484375 436.359375 267.304688 435.007812 266.898438 C 433.660156 266.492188 432.636719 267.269531 432.5 267.007812 Z M 432.5 267.007812 " fill-opacity="1" fill-rule="nonzero"/><path fill="#4a3b42" d="M 419.164062 266.257812 C 419.054688 266.171875 419.164062 265.898438 419.539062 265.625 C 420.039062 265.265625 420.601562 265.097656 421.21875 265.132812 C 421.839844 265.148438 422.382812 265.359375 422.847656 265.765625 C 423.191406 266.070312 423.289062 266.355469 423.171875 266.4375 C 422.953125 266.628906 422.363281 265.804688 421.195312 265.722656 C 420.027344 265.636719 419.398438 266.476562 419.164062 266.257812 Z M 419.164062 266.257812 " fill-opacity="1" fill-rule="nonzero"/><path fill="#4a3b42" d="M 424.671875 280.605469 C 424.835938 280.605469 424.796875 281.238281 425.433594 281.785156 C 425.792969 282.113281 426.214844 282.246094 426.699219 282.179688 C 427.0625 282.105469 427.363281 281.925781 427.601562 281.640625 C 427.839844 281.359375 427.964844 281.03125 427.96875 280.660156 L 428.347656 280.9375 C 427.214844 281.300781 426.074219 281.324219 424.921875 281.019531 C 424.074219 280.78125 423.65625 280.449219 423.707031 280.335938 C 423.757812 280.222656 424.238281 280.394531 425.03125 280.539062 C 426.09375 280.742188 427.136719 280.691406 428.171875 280.378906 L 428.558594 280.261719 L 428.558594 280.65625 C 428.5625 280.871094 428.527344 281.082031 428.464844 281.289062 C 428.335938 281.664062 428.121094 281.984375 427.820312 282.25 C 427.519531 282.511719 427.171875 282.683594 426.785156 282.757812 C 426.460938 282.8125 426.144531 282.785156 425.835938 282.679688 C 425.527344 282.574219 425.261719 282.402344 425.039062 282.164062 C 424.324219 281.339844 424.550781 280.546875 424.671875 280.605469 Z M 424.671875 280.605469 " fill-opacity="1" fill-rule="nonzero"/><path fill="#fcb184" d="M 429.960938 295.195312 L 433.84375 313.367188 L 448.171875 294.976562 L 435.65625 293.984375 Z M 429.960938 295.195312 " fill-opacity="1" fill-rule="nonzero"/><path fill="#4a3b42" d="M 449.496094 274.539062 C 444.042969 281.238281 442.933594 290.511719 443.640625 299.121094 C 446.679688 300.148438 449.871094 301.023438 453.058594 300.671875 C 456.238281 300.3125 459.457031 298.613281 460.773438 295.695312 C 459.445312 294.914062 458.25 293.957031 457.195312 292.828125 C 456.144531 291.695312 455.277344 290.4375 454.589844 289.054688 C 453.230469 286.296875 452.152344 283.433594 451.355469 280.464844 C 450.785156 278.558594 450.207031 276.65625 450.300781 274.71875 " fill-opacity="1" fill-rule="nonzero"/><path fill="#fcb184" d="M 374.660156 301.410156 C 372.863281 298.871094 370.457031 296.84375 368.078125 294.84375 L 365.988281 293.082031 C 365.886719 292.984375 365.777344 292.914062 365.648438 292.867188 C 365.105469 292.6875 364.703125 293.40625 364.648438 293.976562 C 364.507812 295.484375 365.035156 296.976562 365.511719 298.417969 C 365.648438 298.714844 365.667969 299.019531 365.566406 299.335938 C 365.46875 299.5 365.34375 299.640625 365.195312 299.761719 C 364.808594 300.117188 364.488281 300.519531 364.230469 300.972656 C 363.96875 301.425781 363.78125 301.90625 363.660156 302.414062 C 363.542969 302.921875 363.503906 303.433594 363.535156 303.957031 C 363.570312 304.480469 363.679688 304.980469 363.867188 305.46875 " fill-opacity="1" fill-rule="nonzero"/><path fill="#fcb184" d="M 358.644531 300.21875 C 358.136719 302.476562 357.292969 304.605469 356.109375 306.601562 C 355.898438 306.90625 355.753906 307.238281 355.679688 307.601562 C 355.644531 307.785156 355.664062 307.960938 355.746094 308.132812 C 355.824219 308.300781 355.945312 308.429688 356.109375 308.519531 C 356.371094 308.609375 356.625 308.597656 356.878906 308.492188 C 358.082031 307.957031 359.019531 307.121094 359.6875 305.984375 C 361.382812 303.457031 362.863281 300.8125 364.125 298.042969 " fill-opacity="1" fill-rule="nonzero"/><path fill="#4a3b42" d="M 431.304688 407.328125 C 431.589844 407.257812 433.023438 413.230469 434.792969 420.59375 C 435.675781 424.28125 436.488281 427.613281 437.023438 430.039062 C 437.554688 432.46875 437.40625 434.09375 437.261719 434.074219 C 437.117188 434.054688 437.128906 432.542969 436.519531 430.15625 L 434.222656 420.734375 C 432.460938 413.386719 431.027344 407.402344 431.304688 407.328125 Z M 431.304688 407.328125 " fill-opacity="1" fill-rule="nonzero"/><path fill="#4a3b42" d="M 467.257812 337.402344 C 467.496094 337.238281 468.265625 338.394531 469.210938 339.820312 C 470.15625 341.25 470.921875 342.394531 470.683594 342.5625 C 470.441406 342.726562 469.667969 341.566406 468.722656 340.144531 C 467.777344 338.726562 467.011719 337.5625 467.257812 337.402344 Z M 467.257812 337.402344 " fill-opacity="1" fill-rule="nonzero"/><path fill="#4a3b42" d="M 487.492188 328.570312 C 487.207031 328.523438 487.359375 327.707031 487.980469 326.964844 C 488.601562 326.21875 489.371094 325.914062 489.464844 326.191406 C 489.558594 326.460938 488.957031 326.703125 488.429688 327.335938 C 487.90625 327.96875 487.785156 328.632812 487.492188 328.570312 Z M 487.492188 328.570312 " fill-opacity="1" fill-rule="nonzero"/><path fill="#4a3b42" d="M 433.78125 318.136719 C 433.734375 318.035156 433.671875 317.945312 433.589844 317.875 C 433.359375 317.683594 433.105469 317.660156 432.839844 317.796875 C 432.632812 317.910156 432.507812 318.082031 432.464844 318.316406 C 432.4375 318.46875 432.453125 318.617188 432.523438 318.757812 C 432.589844 318.898438 432.691406 319.003906 432.828125 319.078125 C 433.050781 319.195312 433.273438 319.195312 433.5 319.078125 C 433.730469 318.964844 433.859375 318.777344 433.886719 318.519531 C 433.894531 318.378906 433.859375 318.253906 433.78125 318.136719 Z M 433.78125 318.136719 " fill-opacity="1" fill-rule="nonzero"/><path fill="#4a3b42" d="M 433.78125 337.097656 C 433.734375 337 433.671875 336.910156 433.589844 336.839844 C 433.359375 336.648438 433.105469 336.625 432.839844 336.761719 C 432.632812 336.878906 432.507812 337.050781 432.464844 337.285156 C 432.4375 337.4375 432.457031 337.582031 432.523438 337.71875 C 432.589844 337.863281 432.691406 337.96875 432.828125 338.039062 C 433.050781 338.152344 433.273438 338.152344 433.5 338.039062 C 433.730469 337.925781 433.859375 337.742188 433.886719 337.484375 C 433.894531 337.347656 433.859375 337.214844 433.78125 337.097656 Z M 433.78125 337.097656 " fill-opacity="1" fill-rule="nonzero"/><path fill="#4a3b42" d="M 433.78125 356.066406 C 433.734375 355.964844 433.667969 355.875 433.589844 355.800781 C 433.355469 355.613281 433.105469 355.589844 432.839844 355.730469 C 432.632812 355.84375 432.507812 356.015625 432.464844 356.246094 C 432.4375 356.398438 432.453125 356.542969 432.523438 356.683594 C 432.589844 356.828125 432.691406 356.933594 432.828125 357.007812 C 433.050781 357.121094 433.273438 357.121094 433.5 357.007812 C 433.734375 356.894531 433.863281 356.707031 433.886719 356.449219 C 433.894531 356.308594 433.855469 356.183594 433.78125 356.066406 Z M 433.78125 356.066406 " fill-opacity="1" fill-rule="nonzero"/><path fill="#4a3b42" d="M 433.78125 375.035156 C 433.734375 374.933594 433.671875 374.84375 433.589844 374.769531 C 433.355469 374.578125 433.105469 374.554688 432.839844 374.699219 C 432.632812 374.808594 432.507812 374.980469 432.464844 375.210938 C 432.4375 375.367188 432.453125 375.511719 432.523438 375.652344 C 432.589844 375.792969 432.691406 375.902344 432.828125 375.972656 C 433.050781 376.089844 433.273438 376.089844 433.5 375.972656 C 433.734375 375.863281 433.863281 375.671875 433.886719 375.414062 C 433.894531 375.277344 433.859375 375.148438 433.78125 375.035156 Z M 433.78125 375.035156 " fill-opacity="1" fill-rule="nonzero"/><path fill="#4a3b42" d="M 84.378906 371.320312 C 84.40625 372.316406 84.335938 373.304688 84.171875 374.285156 C 83.957031 376.1875 83.652344 378.933594 83.277344 382.316406 C 82.515625 389.097656 81.539062 398.472656 80.738281 408.859375 C 79.941406 419.242188 79.429688 428.652344 79.125 435.472656 C 78.964844 438.871094 78.84375 441.617188 78.753906 443.539062 C 78.761719 444.535156 78.675781 445.523438 78.503906 446.5 C 78.378906 445.515625 78.347656 444.523438 78.414062 443.535156 C 78.414062 441.628906 78.488281 438.859375 78.609375 435.445312 C 78.84375 428.625 79.339844 419.199219 80.160156 408.800781 C 80.972656 398.40625 81.953125 389.027344 82.785156 382.253906 C 83.195312 378.859375 83.558594 376.125 83.847656 374.234375 C 83.9375 373.25 84.117188 372.277344 84.378906 371.320312 Z M 84.378906 371.320312 " fill-opacity="1" fill-rule="nonzero"/><path fill="#4a3b42" d="M 135.042969 381.925781 C 135.359375 382.722656 135.589844 383.550781 135.734375 384.398438 L 137.351562 391.183594 C 138.046875 394.058594 138.886719 397.472656 139.8125 401.257812 C 140.742188 405.046875 141.792969 409.207031 142.648438 413.65625 C 144.148438 422.59375 143.605469 430.867188 145.292969 436.492188 C 145.859375 438.75 146.824219 440.828125 148.179688 442.71875 C 149.15625 444.027344 149.863281 444.625 149.789062 444.691406 C 149.71875 444.761719 149.582031 444.589844 149.246094 444.304688 C 148.753906 443.890625 148.308594 443.429688 147.90625 442.929688 C 146.4375 441.046875 145.398438 438.945312 144.796875 436.632812 C 143.015625 430.871094 143.527344 422.566406 142.070312 413.730469 C 141.226562 409.335938 140.167969 405.167969 139.246094 401.375 C 138.328125 397.578125 137.535156 394.15625 136.851562 391.28125 C 136.164062 388.40625 135.703125 386.0625 135.40625 384.433594 C 135.195312 383.613281 135.070312 382.773438 135.042969 381.925781 Z M 135.042969 381.925781 " fill-opacity="1" fill-rule="nonzero"/><path fill="#4a3b42" d="M 360.453125 342.332031 C 360.453125 342.953125 360.445312 343.550781 360.433594 344.125 C 360.417969 344.695312 360.398438 345.199219 360.371094 345.640625 C 360.339844 346.078125 360.3125 346.417969 360.273438 346.652344 C 360.238281 346.890625 360.203125 347.007812 360.164062 347.007812 C 360.121094 347.007812 360.085938 346.890625 360.050781 346.652344 C 360.011719 346.417969 359.984375 346.078125 359.957031 345.640625 C 359.925781 345.199219 359.90625 344.695312 359.894531 344.125 C 359.878906 343.550781 359.871094 342.953125 359.871094 342.332031 C 359.871094 341.710938 359.878906 341.117188 359.894531 340.546875 C 359.90625 339.96875 359.925781 339.464844 359.957031 339.027344 C 359.984375 338.589844 360.011719 338.253906 360.050781 338.015625 C 360.085938 337.777344 360.121094 337.65625 360.164062 337.65625 C 360.203125 337.65625 360.238281 337.777344 360.273438 338.015625 C 360.3125 338.253906 360.339844 338.589844 360.371094 339.027344 C 360.398438 339.464844 360.417969 339.96875 360.433594 340.546875 C 360.445312 341.117188 360.453125 341.710938 360.453125 342.332031 Z M 360.453125 342.332031 " fill-opacity="1" fill-rule="nonzero"/><path fill="#4a3b42" d="M 136.4375 351.117188 C 136.476562 351.171875 136.066406 351.550781 135.21875 352.109375 C 134.019531 352.890625 132.753906 353.535156 131.414062 354.050781 C 128.046875 355.386719 123.035156 356.269531 117.535156 355.984375 C 114.9375 355.894531 112.402344 355.460938 109.925781 354.671875 C 107.871094 354.011719 106.007812 353.007812 104.332031 351.65625 C 103.199219 350.75 102.25 349.679688 101.484375 348.449219 C 100.953125 347.578125 100.78125 347.042969 100.847656 347.015625 C 101.015625 346.90625 101.875 349.050781 104.65625 351.261719 C 106.300781 352.535156 108.117188 353.492188 110.101562 354.125 C 112.539062 354.886719 115.039062 355.3125 117.59375 355.394531 C 122.269531 355.6875 126.828125 355.078125 131.261719 353.558594 C 134.597656 352.335938 136.332031 350.953125 136.4375 351.117188 Z M 136.4375 351.117188 " fill-opacity="1" fill-rule="nonzero"/><g clip-path="url(#32a46957f8)"><path fill="#ffd230" d="M 111.398438 333.75 C 100.445312 337.285156 98.675781 340.152344 96.496094 357.800781 C 94.292969 340.152344 92.523438 337.285156 81.570312 333.75 C 92.523438 330.21875 94.292969 327.347656 96.496094 309.703125 C 98.675781 327.347656 100.445312 330.21875 111.398438 333.75 Z M 111.398438 333.75 " fill-opacity="1" fill-rule="nonzero"/></g><g clip-path="url(#a47bb66e0e)"><path fill="#fed049" d="M 81.40625 343.914062 C 77.871094 345.058594 77.289062 345.972656 76.601562 351.667969 C 75.894531 345.972656 75.3125 345.058594 71.78125 343.914062 C 75.3125 342.773438 75.894531 341.859375 76.601562 336.164062 C 77.289062 341.859375 77.871094 342.773438 81.40625 343.914062 Z M 81.40625 343.914062 " fill-opacity="1" fill-rule="nonzero"/></g><path fill="#fed049" d="M 113.976562 345.929688 C 112.105469 346.535156 111.792969 347.011719 111.417969 350.027344 C 111.042969 347.011719 110.734375 346.535156 108.863281 345.929688 C 110.734375 345.328125 111.042969 344.828125 111.417969 341.816406 C 111.792969 344.828125 112.105469 345.328125 113.976562 345.929688 Z M 113.976562 345.929688 " fill-opacity="1" fill-rule="nonzero"/><path fill="#fed049" d="M 86.664062 320.699219 C 84.792969 321.300781 84.5 321.800781 84.128906 324.8125 C 83.753906 321.800781 83.441406 321.300781 81.570312 320.699219 C 83.441406 320.09375 83.753906 319.617188 84.128906 316.601562 C 84.5 319.617188 84.792969 320.09375 86.664062 320.699219 Z M 86.664062 320.699219 " fill-opacity="1" fill-rule="nonzero"/><g clip-path="url(#78b58399a8)"><path fill="#fed049" d="M 121.726562 322.691406 C 117.945312 323.917969 117.320312 324.898438 116.574219 330.988281 C 115.824219 324.898438 115.203125 323.917969 111.417969 322.691406 C 115.203125 321.46875 115.824219 320.488281 116.574219 314.378906 C 117.320312 320.488281 117.945312 321.46875 121.726562 322.691406 Z M 121.726562 322.691406 " fill-opacity="1" fill-rule="nonzero"/></g><g clip-path="url(#7599d0ed89)"><path fill="#ffd230" d="M 465.902344 361.789062 C 476.855469 365.320312 478.625 368.1875 480.804688 385.835938 C 483.007812 368.1875 484.777344 365.320312 495.730469 361.789062 C 484.777344 358.253906 483.007812 355.386719 480.804688 337.738281 C 478.625 355.386719 476.855469 358.253906 465.902344 361.789062 Z M 465.902344 361.789062 " fill-opacity="1" fill-rule="nonzero"/></g><g clip-path="url(#e8c11eff2f)"><path fill="#fed049" d="M 495.894531 371.953125 C 499.429688 373.09375 500.011719 374.007812 500.699219 379.703125 C 501.40625 374.007812 501.988281 373.09375 505.519531 371.953125 C 501.988281 370.808594 501.40625 369.894531 500.699219 364.199219 C 500.011719 369.894531 499.429688 370.808594 495.894531 371.953125 Z M 495.894531 371.953125 " fill-opacity="1" fill-rule="nonzero"/></g><path fill="#fed049" d="M 463.324219 373.96875 C 465.195312 374.570312 465.507812 375.046875 465.882812 378.0625 C 466.257812 375.046875 466.566406 374.570312 468.4375 373.96875 C 466.566406 373.363281 466.257812 372.867188 465.882812 369.851562 C 465.507812 372.867188 465.195312 373.363281 463.324219 373.96875 Z M 463.324219 373.96875 " fill-opacity="1" fill-rule="nonzero"/><path fill="#fed049" d="M 490.636719 348.734375 C 492.507812 349.335938 492.800781 349.835938 493.171875 352.847656 C 493.546875 349.835938 493.859375 349.335938 495.730469 348.734375 C 493.859375 348.132812 493.546875 347.652344 493.171875 344.640625 C 492.800781 347.652344 492.507812 348.132812 490.636719 348.734375 Z M 490.636719 348.734375 " fill-opacity="1" fill-rule="nonzero"/><g clip-path="url(#edd8b79311)"><path fill="#fed049" d="M 455.574219 350.730469 C 459.355469 351.957031 459.980469 352.933594 460.726562 359.023438 C 461.476562 352.933594 462.097656 351.957031 465.882812 350.730469 C 462.097656 349.503906 461.476562 348.527344 460.726562 342.414062 C 459.980469 348.527344 459.355469 349.503906 455.574219 350.730469 Z M 455.574219 350.730469 " fill-opacity="1" fill-rule="nonzero"/></g><g clip-path="url(#e669149937)"><path fill="#ffd230" d="M 386.175781 593.960938 C 397.128906 597.496094 398.898438 600.363281 401.078125 618.007812 C 403.285156 600.363281 405.050781 597.496094 416.003906 593.960938 C 405.050781 590.425781 403.285156 587.558594 401.078125 569.910156 C 398.898438 587.558594 397.128906 590.425781 386.175781 593.960938 Z M 386.175781 593.960938 " fill-opacity="1" fill-rule="nonzero"/></g><g clip-path="url(#78692ce562)"><path fill="#fed049" d="M 416.171875 604.125 C 419.703125 605.269531 420.285156 606.183594 420.972656 611.878906 C 421.679688 606.183594 422.261719 605.269531 425.792969 604.125 C 422.261719 602.980469 421.679688 602.066406 420.972656 596.371094 C 420.285156 602.066406 419.703125 602.980469 416.171875 604.125 Z M 416.171875 604.125 " fill-opacity="1" fill-rule="nonzero"/></g><path fill="#fed049" d="M 383.597656 606.140625 C 385.46875 606.742188 385.78125 607.222656 386.15625 610.234375 C 386.53125 607.222656 386.84375 606.742188 388.710938 606.140625 C 386.84375 605.539062 386.53125 605.039062 386.15625 602.027344 C 385.78125 605.039062 385.46875 605.539062 383.597656 606.140625 Z M 383.597656 606.140625 " fill-opacity="1" fill-rule="nonzero"/><path fill="#fed049" d="M 410.910156 580.90625 C 412.78125 581.511719 413.074219 582.007812 413.449219 585.023438 C 413.820312 582.007812 414.132812 581.511719 416.003906 580.90625 C 414.132812 580.304688 413.820312 579.828125 413.449219 576.8125 C 413.074219 579.828125 412.78125 580.304688 410.910156 580.90625 Z M 410.910156 580.90625 " fill-opacity="1" fill-rule="nonzero"/><g clip-path="url(#7971791a2d)"><path fill="#fed049" d="M 375.847656 582.902344 C 379.628906 584.128906 380.253906 585.105469 381 591.195312 C 381.75 585.105469 382.371094 584.128906 386.15625 582.902344 C 382.371094 581.675781 381.75 580.699219 381 574.589844 C 380.253906 580.699219 379.628906 581.675781 375.847656 582.902344 Z M 375.847656 582.902344 " fill-opacity="1" fill-rule="nonzero"/></g><g clip-path="url(#8f0e643cc0)"><path fill="#ffd230" d="M 188.371094 535.273438 C 177.417969 538.808594 175.652344 541.675781 173.46875 559.324219 C 171.265625 541.675781 169.5 538.808594 158.546875 535.273438 C 169.5 531.738281 171.265625 528.871094 173.46875 511.226562 C 175.652344 528.871094 177.417969 531.738281 188.371094 535.273438 Z M 188.371094 535.273438 " fill-opacity="1" fill-rule="nonzero"/></g><g clip-path="url(#9927bac0a9)"><path fill="#fed049" d="M 158.378906 545.4375 C 154.84375 546.582031 154.261719 547.496094 153.578125 553.191406 C 152.871094 547.496094 152.289062 546.582031 148.753906 545.4375 C 152.289062 544.292969 152.871094 543.378906 153.578125 537.683594 C 154.261719 543.378906 154.84375 544.292969 158.378906 545.4375 Z M 158.378906 545.4375 " fill-opacity="1" fill-rule="nonzero"/></g><path fill="#fed049" d="M 190.949219 547.453125 C 189.078125 548.058594 188.769531 548.535156 188.394531 551.546875 C 188.019531 548.535156 187.707031 548.058594 185.835938 547.453125 C 187.707031 546.851562 188.019531 546.351562 188.394531 543.339844 C 188.769531 546.351562 189.078125 546.851562 190.949219 547.453125 Z M 190.949219 547.453125 " fill-opacity="1" fill-rule="nonzero"/><path fill="#fed049" d="M 163.636719 522.21875 C 161.765625 522.824219 161.476562 523.320312 161.101562 526.335938 C 160.726562 523.320312 160.417969 522.824219 158.546875 522.21875 C 160.417969 521.617188 160.726562 521.140625 161.101562 518.125 C 161.476562 521.140625 161.765625 521.617188 163.636719 522.21875 Z M 163.636719 522.21875 " fill-opacity="1" fill-rule="nonzero"/><g clip-path="url(#5e9752461d)"><path fill="#fed049" d="M 198.703125 524.214844 C 194.921875 525.441406 194.296875 526.417969 193.546875 532.507812 C 192.800781 526.417969 192.175781 525.441406 188.394531 524.214844 C 192.175781 522.988281 192.800781 522.011719 193.546875 515.902344 C 194.296875 522.011719 194.921875 522.988281 198.703125 524.214844 Z M 198.703125 524.214844 " fill-opacity="1" fill-rule="nonzero"/></g></svg>